<?xml version="1.0" encoding="utf-8"?>
<!-- Generator: Adobe Illustrator 18.1.1, SVG Export Plug-In . SVG Version: 6.00 Build 0)  -->
<svg version="1.1" id="Layer_1" xmlns="http://www.w3.org/2000/svg" xmlns:xlink="http://www.w3.org/1999/xlink" x="0px" y="0px"
	 viewBox="-987 993 72 64" enable-background="new -987 993 72 64" xml:space="preserve">
<path d="M-973,1001h-12c-1.1,0-2,0.9-2,2v44c0,1.1,0.9,2,2,2h12c1.1,0,2-0.9,2-2v-44C-971,1001.9-971.9,1001-973,1001z M-975,1013
	h-8v-4h8V1013z M-953,1001h-12c-1.1,0-2,0.9-2,2v44c0,1.1,0.9,2,2,2h12c1.1,0,2-0.9,2-2v-44C-951,1001.9-951.9,1001-953,1001z
	 M-955,1013h-8v-4h8V1013z M-919.4,1043.4l-10.7,5.4c0,0,0,0-0.1,0c-0.1,0-0.1,0.1-0.2,0.1c-0.1,0-0.1,0-0.2,0.1c-0.1,0-0.1,0-0.2,0
	c-0.1,0-0.1,0-0.2,0c0,0,0,0-0.1,0c0,0-0.1,0-0.1,0c-0.1,0-0.1,0-0.2,0c-0.1,0-0.2,0-0.2-0.1c0,0-0.1,0-0.1,0
	c-0.1,0-0.2-0.1-0.2-0.1c0,0-0.1,0-0.1-0.1c-0.1,0-0.1-0.1-0.2-0.1c0,0-0.1-0.1-0.1-0.1c-0.1-0.1-0.1-0.1-0.2-0.2
	c0,0-0.1-0.1-0.1-0.1c0-0.1-0.1-0.1-0.1-0.2c0,0,0-0.1-0.1-0.1l-18-35.7c-0.5-1-0.1-2.2,0.9-2.7l10.7-5.4h0c1-0.5,2.2-0.1,2.7,0.9
	l18,35.7C-918,1041.7-918.4,1042.9-919.4,1043.4z"/>
</svg>
