<?xml version="1.0" encoding="utf-8"?>
<!-- Generator: Adobe Illustrator 18.1.1, SVG Export Plug-In . SVG Version: 6.00 Build 0)  -->
<svg version="1.1" id="Layer_1" xmlns="http://www.w3.org/2000/svg" xmlns:xlink="http://www.w3.org/1999/xlink" x="0px" y="0px"
	 viewBox="-991 993 64 64" enable-background="new -991 993 64 64" xml:space="preserve">
<path d="M-935,1001v52h-42c-3.3,0-6-2.7-6-6s2.7-6,6-6h38v-48h-40c-4.4,0-8,3.6-8,8v48c0,4.4,3.6,8,8,8h48v-56H-935z M-977,1045
	L-977,1045C-977,1045-977,1045-977,1045c-1.1,0-2,0.9-2,2s0.9,2,2,2c0,0,0,0,0,0l0,0h38v-4C-939,1045-977,1045-977,1045z"/>
</svg>
