<svg xmlns="http://www.w3.org/2000/svg" viewBox="0 0 2048 2048">
	 <g>
			<path d="M1831.9,463.9c-44.3-60.4-105.9-130.8-173.6-198.4c-67.8-67.6-138.3-129.2-198.4-173.6c-102.6-75.3-152.6-84-181-84H291.4
				c-87.9,0-159.3,71.4-159.3,159.3v1720c0,87.9,71.4,159.3,159.3,159.3h1465.2c87.7,0,159.3-71.4,159.3-159.3V644.9
				C1915.9,616.3,1907.2,566.5,1831.9,463.9L1831.9,463.9z M1568.2,355.5c61.1,61.2,109.1,116.3,144.5,162.1h-306.5V211
				C1451.9,246.5,1507.1,294.4,1568.2,355.5L1568.2,355.5z M1788.5,1887.1c0,17.3-14.7,31.9-31.9,31.9H291.4
				c-17.3,0-31.9-14.6-31.9-31.9v-1720c0-17.3,14.6-31.9,31.9-31.9h987.4v445.9c0,35.3,28.5,63.8,63.6,63.8h446.1V1887.1z
				 M1788.5,1887.1"/>
		</g>
		<g>
			<path d="M820,883.9c-19.5,19.5-18.5,52.4,2.2,73.1l350.5,350.5c20.7,20.7,53.6,21.6,73.1,2.2
				s18.5-52.4-2.2-73.1L893.1,886.1C872.4,865.3,839.5,864.4,820,883.9L820,883.9z M852,1057.8c-10,5-21.2,7.7-32.9,7.7
				c-19.6,0-37.8-7.5-51.4-21L586.6,863.3c-13.6-13.6-21-31.8-21-51.4c0-19.5,7.5-37.8,21-51.3l110.2-110.2
				c13.6-13.6,31.8-21.1,51.3-21.1c19.6,0,37.8,7.5,51.4,21.1l181.1,181.1c13.6,13.6,21,31.8,21,51.4c0,11.7-2.7,22.9-7.7,32.9
				l72.4,72.4c23.7-30.9,35.7-68.1,35.7-105.3c0-44.4-16.8-88.7-50.5-122.3L870.4,579.5c-67.2-67.2-177.3-67.2-244.6,0L515.6,689.7
				c-33.6,33.7-50.4,78.1-50.4,122.3c0,44.4,16.8,88.7,50.4,122.3l181.1,181.1c61.9,61.9,160.1,66.9,227.8,14.8L852,1057.8
				L852,1057.8z M1440,1614.1l110.2-110.2c33.6-33.7,50.4-78,50.4-122.3c0-44.4-16.8-88.7-50.4-122.3L1369,1078.1
				c-61.9-61.9-160-66.9-227.7-14.8l72.4,72.4c10-5,21.3-7.7,32.9-7.7c19.6,0,37.8,7.5,51.4,21l181.1,181.1
				c13.6,13.6,21.1,31.8,21.1,51.4c0,19.5-7.5,37.8-21.1,51.3L1369,1543.1c-13.5,13.6-31.8,21-51.3,21c-19.6,0-37.8-7.5-51.4-21
				l-181.1-181.1c-13.6-13.6-21-31.8-21-51.4c0-11.6,2.7-22.9,7.7-32.9l-72.4-72.4c-23.8,30.9-35.7,68.1-35.7,105.3
				c0,44.4,16.8,88.7,50.5,122.3l181.1,181.2C1262.6,1681.3,1372.7,1681.3,1440,1614.1L1440,1614.1z M1440,1614.1"/>
		</g>
</svg>
