<?xml version="1.0" encoding="utf-8"?>
<!-- Generator: Adobe Illustrator 18.1.1, SVG Export Plug-In . SVG Version: 6.00 Build 0)  -->
<svg version="1.1" id="drag" xmlns="http://www.w3.org/2000/svg" xmlns:xlink="http://www.w3.org/1999/xlink" x="0px" y="0px"
	 viewBox="0 0 2048 2048" enable-background="new 0 0 2048 2048" xml:space="preserve">
<path d="M1247.3,210.5c0-28.8,5.3-56.1,15.9-82c10.6-25.8,25.4-48.2,44.4-67.2c19-19,41.3-33.8,67.2-44.4
	c25.8-10.6,53.1-15.9,82-15.9c28.8,0,56.1,5.3,82,15.9c25.8,10.6,48.2,25.4,67.2,44.4c19,19,33.8,41.4,44.4,67.2
	c10.6,25.8,15.9,53.2,15.9,82c0,28.9-5.3,56.2-15.9,82c-10.6,25.8-25.4,48.2-44.4,67.2c-19,19-41.4,33.8-67.2,44.4
	c-25.8,10.6-53.2,15.9-82,15.9c-28.9,0-56.2-5.3-82-15.9c-25.8-10.6-48.2-25.4-67.2-44.4c-19-19-33.8-41.3-44.4-67.2
	C1252.6,266.7,1247.3,239.3,1247.3,210.5z M1247.3,1023.5c0-28.8,5.3-56.1,15.9-82c10.6-25.8,25.4-48.2,44.4-67.2
	c19-19,41.3-33.8,67.2-44.4c25.8-10.6,53.1-15.9,82-15.9c28.8,0,56.1,5.3,82,15.9c25.8,10.6,48.2,25.4,67.2,44.4
	c19,19,33.8,41.4,44.4,67.2c10.6,25.8,15.9,53.2,15.9,82c0,28.9-5.3,56.2-15.9,82c-10.6,25.8-25.4,48.2-44.4,67.2
	c-19,19-41.4,33.8-67.2,44.4c-25.8,10.6-53.2,15.9-82,15.9c-28.9,0-56.2-5.3-82-15.9c-25.8-10.6-48.2-25.4-67.2-44.4
	c-19-19-33.8-41.4-44.4-67.2C1252.6,1079.7,1247.3,1052.3,1247.3,1023.5z M1247.3,1836.5c0-28.8,5.3-56.1,15.9-82
	c10.6-25.8,25.4-48.2,44.4-67.2c19-19,41.3-33.8,67.2-44.4c25.8-10.6,53.1-15.9,82-15.9c28.8,0,56.1,5.3,82,15.9
	c25.8,10.6,48.2,25.4,67.2,44.4c19,19,33.8,41.4,44.4,67.2c10.6,25.8,15.9,53.2,15.9,82c0,28.9-5.3,56.2-15.9,82
	c-10.6,25.8-25.4,48.2-44.4,67.2c-19,19-41.4,33.8-67.2,44.4c-25.8,10.6-53.2,15.9-82,15.9c-28.9,0-56.2-5.3-82-15.9
	c-25.8-10.6-48.2-25.4-67.2-44.4c-19-19-33.8-41.4-44.4-67.2C1252.6,1892.7,1247.3,1865.4,1247.3,1836.5z M380,210.5
	c0-28.8,5.3-56.1,15.9-82c10.6-25.8,25.4-48.2,44.4-67.2c19-19,41.3-33.8,67.2-44.4C533.3,6.3,560.6,1,589.5,1
	c28.8,0,56.1,5.3,82,15.9c25.8,10.6,48.2,25.4,67.2,44.4c19,19,33.8,41.4,44.4,67.2c10.6,25.8,15.9,53.2,15.9,82
	c0,28.9-5.3,56.2-15.9,82c-10.6,25.8-25.4,48.2-44.4,67.2c-19,19-41.4,33.8-67.2,44.4c-25.8,10.6-53.2,15.9-82,15.9
	c-28.8,0-56.2-5.3-82-15.9c-25.8-10.6-48.2-25.4-67.2-44.4c-19-19-33.8-41.3-44.4-67.2C385.3,266.7,380,239.3,380,210.5z
	 M380,1023.5c0-28.8,5.3-56.1,15.9-82c10.6-25.8,25.4-48.2,44.4-67.2c19-19,41.3-33.8,67.2-44.4c25.8-10.6,53.1-15.9,82-15.9
	c28.8,0,56.1,5.3,82,15.9c25.8,10.6,48.2,25.4,67.2,44.4c19,19,33.8,41.4,44.4,67.2c10.6,25.8,15.9,53.2,15.9,82
	c0,28.9-5.3,56.2-15.9,82c-10.6,25.8-25.4,48.2-44.4,67.2c-19,19-41.4,33.8-67.2,44.4c-25.8,10.6-53.2,15.9-82,15.9
	c-28.8,0-56.2-5.3-82-15.9c-25.8-10.6-48.2-25.4-67.2-44.4c-19-19-33.8-41.4-44.4-67.2C385.3,1079.7,380,1052.3,380,1023.5z
	 M380,1836.5c0-28.8,5.3-56.1,15.9-82c10.6-25.8,25.4-48.2,44.4-67.2c19-19,41.3-33.8,67.2-44.4c25.8-10.6,53.1-15.9,82-15.9
	c28.8,0,56.1,5.3,82,15.9c25.8,10.6,48.2,25.4,67.2,44.4c19,19,33.8,41.4,44.4,67.2c10.6,25.8,15.9,53.2,15.9,82
	c0,28.9-5.3,56.2-15.9,82c-10.6,25.8-25.4,48.2-44.4,67.2c-19,19-41.4,33.8-67.2,44.4c-25.8,10.6-53.2,15.9-82,15.9
	c-28.8,0-56.2-5.3-82-15.9c-25.8-10.6-48.2-25.4-67.2-44.4c-19-19-33.8-41.4-44.4-67.2C385.3,1892.7,380,1865.4,380,1836.5z"/>
</svg>
