<?xml version="1.0" encoding="utf-8"?>
<!-- Generator: Adobe Illustrator 19.1.0, SVG Export Plug-In . SVG Version: 6.00 Build 0)  -->
<svg version="1.1" xmlns="http://www.w3.org/2000/svg" xmlns:xlink="http://www.w3.org/1999/xlink" x="0px" y="0px"
	 viewBox="0 0 2048 2048" enable-background="new 0 0 2048 2048" xml:space="preserve">
<g id="star-circle">
</g>
<g id="pinned-note">
</g>
<g id="banner">
</g>
<g id="spike">
</g>
<g id="countdown">
</g>
<g id="shuffles">
</g>
<g id="user-edit">
</g>
<g id="user-lock">
</g>
<g id="user-check">
</g>
<g id="book-plus">
</g>
<g id="book-open-plus">
</g>
<g id="teacher">
</g>
<g id="spike-drawn">
</g>
<g id="arrow">
</g>
<g id="guides" display="none">
</g>
<g id="app-notification">
	<path id="phone" d="M1511.2,2h-194.9h-72.7H803.2h-47.7H535.7C464.1,2,410,63.3,410,135.8v1783.9c0,71.5,54.1,126.4,125.7,126.4
		h9.3h957h9.3c71.5,0,125.8-54.8,125.8-126.4V135.8C1637,63.3,1582.7,2,1511.2,2z M1132.5,1885.2c-0.3,0.9-0.7,1.8-1,2.7
		c-4.2,10.5-9.8,20.3-16.7,29.1c-1.1,1.5-2.3,2.9-3.6,4.3c-9.7,11.2-21.6,20.6-34.9,27.4c-0.8,0.4-1.7,0.8-2.5,1.3
		c-5.1,2.4-10.4,4.5-15.8,6.2c-0.9,0.3-1.8,0.6-2.7,0.8c-10.1,2.9-20.8,4.4-31.8,4.4c-22,0-42.6-6.1-60.2-16.8c-1.6-1-3.2-2-4.7-3
		c-12.4-8.4-23-19-31.4-31.4c-0.5-0.8-1-1.6-1.5-2.3c-1.5-2.4-2.9-4.8-4.3-7.2c-1.8-3.3-3.4-6.7-4.9-10.2c-1.1-2.6-2.1-5.3-3-8
		c-4-11.7-6.1-24.2-6.1-37.2c0-13,2.1-25.5,6.1-37.2c0.9-2.7,1.9-5.4,3-8c1.5-3.5,3.1-6.9,4.9-10.2c1.3-2.5,2.8-4.9,4.3-7.2
		c0.5-0.8,1-1.6,1.5-2.3c8.4-12.4,19-23,31.4-31.4c1.5-1,3.1-2.1,4.7-3c17.6-10.7,38.2-16.8,60.2-16.8c11,0,21.7,1.5,31.8,4.4
		c0.9,0.3,1.8,0.5,2.7,0.8c5.5,1.7,10.7,3.8,15.8,6.2c0.8,0.4,1.7,0.8,2.5,1.3c13.4,6.8,25.2,16.2,34.9,27.4
		c1.2,1.4,2.4,2.8,3.6,4.3c6.9,8.8,12.6,18.6,16.7,29.1c0.3,0.9,0.7,1.8,1,2.7c4.6,12.4,7.1,25.9,7.1,39.9
		C1139.6,1859.3,1137.1,1872.8,1132.5,1885.2z M1517,1628H530V234h987V1628z"/>
	<g id="alert">
		<rect x="673.4" y="626.7" width="700" height="346"/>
		<rect x="673.4" y="1032" width="313.7" height="130.5"/>
		<rect x="1059.7" y="1032" width="313.7" height="130.5"/>
	</g>
</g>
</svg>
