<?xml version="1.0" encoding="utf-8"?>
<!-- Generator: Adobe Illustrator 19.2.1, SVG Export Plug-In . SVG Version: 6.00 Build 0)  -->
<svg version="1.1" xmlns="http://www.w3.org/2000/svg" xmlns:xlink="http://www.w3.org/1999/xlink" x="0px" y="0px"
	 viewBox="0 0 2048 2048" enable-background="new 0 0 2048 2048" xml:space="preserve">
<g id="star-circle">
</g>
<g id="pinned-note">
</g>
<g id="banner">
</g>
<g id="spike">
</g>
<g id="countdown">
</g>
<g id="shuffles">
</g>
<g id="user-edit">
</g>
<g id="user-lock">
</g>
<g id="user-check">
</g>
<g id="book-plus">
</g>
<g id="book-open-plus">
</g>
<g id="teacher">
</g>
<g id="spike-drawn">
</g>
<g id="arrow">
</g>
<g id="grid-squares">
</g>
<g id="numbers">
</g>
<g id="letters">
</g>
<g id="line">
</g>
<g id="letters-boxed">
	<g>
		<path d="M638.4,1252.2c0,14.2,0.3,28.5,0.9,42.9c0.6,14.4,1.5,27.6,2.8,39.2h61.9v46.2H556.3l-9.3-87.7h-4.6
			c-3.1,12.3-8.8,24.3-17.1,36s-18.8,22.2-31.4,31.4c-12.6,9.3-27.6,16.6-44.8,22.2c-17.3,5.5-36.3,8.3-57.2,8.3s-40.2-3-57.7-9.2
			c-17.5-6.1-32.8-14.7-45.7-25.8c-12.9-11.1-22.9-24.5-29.9-40.2c-7.1-15.7-10.6-33.4-10.6-53.1c0-30.1,6.3-55.1,18.9-74.8
			c12.6-19.7,31.2-35.2,55.8-46.6c24.6-11.4,55.4-19.6,92.3-24.5c36.9-5,80-7.7,129.2-8.3c1.2-9.8,1.8-19.1,1.8-27.9
			c0-8.8,0-17.5,0-26c0-37.7-6.4-66.5-19.4-86.3c-12.9-19.8-36-29.7-69.2-29.7c-12.3,0-25.6,0.6-39.7,1.8
			c-14.2,1.2-27.1,4.8-38.8,10.9v83.3h-83.1V931.8c22.3-11.7,48.6-22.2,78.9-31.4c30.3-9.2,65.9-13.8,106.8-13.8
			c35.2,0,63.6,4.4,84.9,13.4c21.3,9,37.7,20.6,49.1,35.1c11.5,14.4,18.9,30.8,22.3,48.9c3.4,18.2,5.2,36.2,5.2,54
			c0,38.8-0.8,75.9-2.3,111.3C639.1,1184.6,638.4,1219,638.4,1252.2z M434.4,1328.8c14.7,0,27.9-2.3,39.7-7
			c11.7-4.6,22-10.4,30.9-17.5c9-7.1,16.6-14.9,23.1-23.6c6.4-8.6,11.8-16.9,16.2-24.9V1146c-40.1,0-72.5,2.6-97.4,7.9
			c-24.9,5.3-44.4,12.2-58.6,20.8c-14.2,8.6-23.9,18.9-29.1,30.9s-7.9,24.8-7.9,38.3c0,27.7,7.4,48.8,22.2,63.2
			C388.2,1321.6,408.5,1328.8,434.4,1328.8z"/>
		<path d="M811.9,734.4h-76.6v-46.2h173.5V991h2.8c11.7-32.6,31.3-58.1,58.9-76.6s58.6-27.7,93-27.7
			c62.6,0,110.6,19.7,144.1,59c33.4,39.4,50.2,100.6,50.2,183.7c0,85.6-23.2,150.4-69.5,194.3c-46.4,44-112.6,66-198.5,66
			c-17.2,0-34.6-1.1-52-3.2c-17.5-2.2-34.4-5-50.7-8.3c-16.3-3.4-30.9-7.2-43.8-11.5c-12.9-4.3-23.3-9-31.3-13.8V734.4z
			 M1033.4,948.5c-33.2,0-59.8,10-79.8,29.9c-20,20-34.9,45.7-44.8,77.1v268.6c12.3,6.8,27.2,12.2,44.8,16.2c17.6,4,36.5,6,56.8,6
			c45.5,0,80.9-18.4,106.2-55.4c25.2-36.9,37.8-90.7,37.8-161.6c0-25.2-2.1-48.9-6.4-71.1c-4.3-22.2-11.4-41.3-21.2-57.7
			c-9.9-16.3-22.3-29-37.3-38.2C1074.2,953.1,1055.6,948.5,1033.4,948.5z"/>
		<path d="M1745.1,1318.6c-12.9,17.9-33.4,34.3-61.4,49.4c-28,15.1-61.1,22.6-99.2,22.6c-40.6,0-76.2-6-106.6-18
			s-55.8-28.9-76.2-50.8c-20.3-21.8-35.4-48.3-45.2-79.3c-9.9-31.1-14.8-65.7-14.8-103.9c0-81.8,21.7-144.3,65.1-187.4
			c43.4-43.1,102.3-64.6,176.8-64.6c33.9,0,61.9,2.2,84,6.4c22.2,4.3,42.4,11.1,60.9,20.3v120h-83.1v-86.9
			c-9.3-5.4-27.8-8.1-55.6-8.1c-23.5,0-44.2,3.3-62.1,10.1c-18,6.7-33.1,17.8-45.5,33c-12.4,15.3-21.6,35.9-27.8,61.6
			c-6.2,25.8-9.3,57.3-9.3,94.7c0,24.5,3.4,47.9,10.2,70.2c6.8,22.3,17,42,30.6,58.9c13.6,16.8,30.6,30.1,51.4,39.9
			c20.7,9.8,44.9,14.7,72.7,14.7c14.8,0,27.9-1.5,39.3-4.6c11.4-3.1,21.4-6.3,30.1-9.7c8.6-3.3,16.4-7.2,23.2-11.5
			c6.8-4.3,13.3-9,19.4-13.8L1745.1,1318.6z"/>
	</g>
	<g>
		<path d="M2046,1716.8H2V332.2h2044V1716.8z M67.9,1650.9h1912.1V398.1H67.9V1650.9z"/>
	</g>
</g>
<g id="paragraph-boxed">
</g>
</svg>
