<?xml version="1.0" encoding="utf-8"?>
<!-- Generator: Adobe Illustrator 18.1.1, SVG Export Plug-In . SVG Version: 6.00 Build 0)  -->
<svg version="1.1" xmlns="http://www.w3.org/2000/svg" xmlns:xlink="http://www.w3.org/1999/xlink" x="0px" y="0px"
	 viewBox="0 0 2048 2048" enable-background="new 0 0 2048 2048" xml:space="preserve">
<g id="star-circle">
</g>
<g id="pinned-note">
</g>
<g id="banner">
</g>
<g id="spike">
</g>
<g id="countdown">
</g>
<g id="shuffles">
</g>
<g id="user-edit">
</g>
<g id="user-lock">
</g>
<g id="user-check">
</g>
<g id="book-plus">
</g>
<g id="book-open-plus">
</g>
<g id="teacher">
	<path d="M1722.9,477c96.6,0,174.9,79.7,174.9,178s-78.3,178-174.9,178S1548,753.3,1548,655S1626.3,477,1722.9,477z M1101,1748H0
		V300.8h1101v621.9H951V450.8H150V1598h801v-37h150V1748z M2048,1077v671h-614v-287c0-32.3,2.3-139.8-52.7-77.3
		c-23.9,27.2-87.3,114.3-148.3,117.3c-80,4-247.8-162.8-331.2-201.5c-29.3-13.6-40-34.5-34.8-69.5L601.5,842.8
		c78.4-55.9,0,0,78.4-55.9L966,1206c20-6,32.8-2.5,41.2,17c23.8,55.5,177.6,149.1,212,137.1c40.5-14.2,103.8-219.1,155.9-343.6
		c57.6-137.7,197.4-141.5,197.4-141.5h313C2033,893,2048,1077,2048,1077z"/>
</g>
</svg>
