<?xml version="1.0" encoding="utf-8"?>
<!-- Generator: Adobe Illustrator 18.1.1, SVG Export Plug-In . SVG Version: 6.00 Build 0)  -->
<svg version="1.1" xmlns="http://www.w3.org/2000/svg" xmlns:xlink="http://www.w3.org/1999/xlink" x="0px" y="0px"
	 viewBox="0 0 2048 2048" enable-background="new 0 0 2048 2048" xml:space="preserve">
<g id="star-circle">
</g>
<g id="pinned-note">
</g>
<g id="banner">
</g>
<g id="spike">
</g>
<g id="countdown">
</g>
<g id="shuffles">
	<path d="M816.1,816.1c0,34.6-12.1,64.1-36.4,88.3c-24.3,24.3-53.7,36.4-88.3,36.4c-34.6,0-64.1-12.1-88.3-36.4
		c-24.3-24.3-36.4-53.7-36.4-88.3s12.1-64.1,36.4-88.3c24.3-24.3,53.7-36.4,88.3-36.4c34.6,0,64.1,12.1,88.3,36.4
		C804,752,816.1,781.5,816.1,816.1z M1481.3,1065.6v291H566.7v-124.7L774.5,1024l103.9,103.9l332.6-332.6L1481.3,1065.6z
		 M1543.7,608.2H504.3c-5.6,0-10.5,2.1-14.6,6.2s-6.2,9-6.2,14.6V1419c0,5.6,2.1,10.5,6.2,14.6s9,6.2,14.6,6.2h1039.4
		c5.6,0,10.5-2.1,14.6-6.2c4.1-4.1,6.2-9,6.2-14.6V629c0-5.6-2.1-10.5-6.2-14.6C1554.2,610.3,1549.3,608.2,1543.7,608.2z
		 M1647.6,629V1419c0,28.6-10.2,53.1-30.5,73.4c-20.4,20.4-44.8,30.5-73.4,30.5H504.3c-28.6,0-53.1-10.2-73.4-30.5
		c-20.4-20.4-30.5-44.8-30.5-73.4V629c0-28.6,10.2-53.1,30.5-73.4c20.4-20.4,44.8-30.5,73.4-30.5h1039.4c28.6,0,53.1,10.2,73.4,30.5
		S1647.6,600.5,1647.6,629z M2039.5,1003.9l-200.6-200.6c-5.7-5.7-12.4-8.5-20.1-8.5c-7.8,0-14.5,2.8-20.1,8.5
		c-5.7,5.7-8.5,12.4-8.5,20.1v401.1c0,7.8,2.8,14.5,8.5,20.1c5.7,5.7,12.4,8.5,20.1,8.5c7.8,0,14.5-2.8,20.1-8.5l200.6-200.6
		c5.7-5.7,8.5-12.4,8.5-20.1C2048,1016.2,2045.2,1009.5,2039.5,1003.9z M249.4,803.3c-5.7-5.7-12.4-8.5-20.1-8.5s-14.5,2.8-20.1,8.5
		L8.5,1003.9c-5.7,5.7-8.5,12.4-8.5,20.1c0,7.8,2.8,14.5,8.5,20.1l200.6,200.6c5.7,5.7,12.4,8.5,20.1,8.5s14.5-2.8,20.1-8.5
		c5.7-5.7,8.5-12.4,8.5-20.1V823.4C257.9,815.7,255,809,249.4,803.3z"/>
</g>
<g id="user-edit">
</g>
<g id="user-lock">
</g>
<g id="user-check">
</g>
<g id="book-plus">
</g>
<g id="book-open-plus">
</g>
<g id="teacher">
</g>
</svg>
