<?xml version="1.0" encoding="utf-8"?>
<!-- Generator: Adobe Illustrator 19.2.1, SVG Export Plug-In . SVG Version: 6.00 Build 0)  -->
<svg version="1.1" xmlns="http://www.w3.org/2000/svg" xmlns:xlink="http://www.w3.org/1999/xlink" x="0px" y="0px"
	 viewBox="0 0 2048 2048" enable-background="new 0 0 2048 2048" xml:space="preserve">
<g id="star-circle">
</g>
<g id="pinned-note">
</g>
<g id="banner">
</g>
<g id="spike">
</g>
<g id="countdown">
</g>
<g id="shuffles">
</g>
<g id="user-edit">
</g>
<g id="user-lock">
</g>
<g id="user-check">
</g>
<g id="book-plus">
</g>
<g id="book-open-plus">
</g>
<g id="teacher">
</g>
<g id="spike-drawn">
</g>
<g id="arrow">
</g>
<g id="grid-squares">
</g>
<g id="numbers">
</g>
<g id="letters">
</g>
<g id="line">
</g>
<g id="letters-boxed">
</g>
<g id="paragraph-boxed">
	<g>
		<path d="M892,466.4c0,17.5-13.9,47.9-31.4,47.9c-8.8,0-19.1-1.5-27.8,0.5c-8.2,2.1-14.4,7.7-16.5,16
			c-2.6,9.8-1.5,22.2-1.5,33v593.4c0,17.5-13.9,31.4-31.4,31.4h-55.6c-17.5,0-31.4-13.9-31.4-31.4V529.8h-73.7v627.4
			c0,17.5-13.9,31.4-31.4,31.4h-55.6c-17.5,0-31.4-13.9-31.4-31.4V901.7c-50-4.1-92.7-14.4-126.2-30.4c-43.3-20.1-76.2-51-98.9-92.2
			c-21.6-39.7-33-84.5-33-133.4c0-57.2,15.5-106.6,45.3-147.3c30.4-40.7,66.5-68,107.7-81.9c38.6-12.9,120-19.1,214.8-19.1h246.7
			c17.5,0,31.4,13.9,31.4,31.4V466.4z"/>
	</g>
	<g>
		<path d="M2046,1880.9H2V166.6h2044V1880.9z M67.9,1815h1912.1V232.5H67.9V1815z"/>
	</g>
	<g>

			<rect x="1677.8" y="1676.5" transform="matrix(0.7071 -0.7071 0.7071 0.7071 -659.3345 1827.2216)" width="396.3" height="65.9"/>
	</g>
	<g>

			<rect x="1289.6" y="1518.4" transform="matrix(0.7071 -0.7071 0.7071 0.7071 -594.4087 1666.6521)" width="850" height="65"/>
	</g>
	<g>

			<rect x="863.4" y="1338.2" transform="matrix(0.7071 -0.7071 0.7071 0.7071 -520.0077 1489.0355)" width="1348.1" height="68.1"/>
	</g>
</g>
</svg>
