<?xml version="1.0" encoding="utf-8"?>
<!-- Generator: Adobe Illustrator 18.1.1, SVG Export Plug-In . SVG Version: 6.00 Build 0)  -->
<svg version="1.1" xmlns="http://www.w3.org/2000/svg" xmlns:xlink="http://www.w3.org/1999/xlink" x="0px" y="0px"
	 viewBox="0 0 2048 2048" enable-background="new 0 0 2048 2048" xml:space="preserve">
<g id="star-circle">
</g>
<g id="pinned-note">
</g>
<g id="banner">
</g>
<g id="spike">
</g>
<g id="countdown">
</g>
<g id="shuffles">
</g>
<g id="user-edit">
</g>
<g id="user-lock">
</g>
<g id="user-check">
	<path d="M776.6,1664H0c0-258,333.8-471.3,768-506.8v-105.6C627,972.2,512,774.1,512,576c0-318.1,0-576,384-576s384,257.9,384,576
		c0,198.1-115,396.2-256,475.6v105.6c210.7,17.2,397.8,76.4,534.5,162.1l-177.6,177.9L1185,1300.7c-13.3-13.3-42.6-20.3-61.5-20.3
		s-46.6,5.4-59.8,18.7l-274,274c-13.3,13.3-18.7,37.1-18.7,56C771,1639.7,772.7,1652.5,776.6,1664z M2028.4,1330.8l-95.1-95.1
		c-13.1-13.1-28.9-19.6-47.6-19.6c-18.7,0-34.5,6.5-47.6,19.6l-458.9,459.6L1173.5,1489c-13.1-13.1-28.9-19.6-47.6-19.6
		c-18.7,0-34.5,6.5-47.6,19.6l-95.1,95.1c-13.1,13.1-19.6,28.9-19.6,47.6c0,18.7,6.5,34.5,19.6,47.6l253.3,253.3l95.1,95.1
		c13.1,13.1,28.9,19.6,47.6,19.6c18.7,0,34.5-6.5,47.6-19.6l95.1-95.1l506.5-506.5c13.1-13.1,19.6-28.9,19.6-47.6
		S2041.5,1343.9,2028.4,1330.8z"/>
</g>
<g id="book-plus">
</g>
<g id="book-open-plus">
</g>
<g id="teacher">
</g>
</svg>
