<?xml version="1.0" encoding="utf-8"?>
<!-- 2015 Edlio, Inc.-->
<svg version="1.1" xmlns="http://www.w3.org/2000/svg" xmlns:xlink="http://www.w3.org/1999/xlink" x="0px" y="0px"
	 viewBox="0 0 2048 2048" enable-background="new 0 0 2048 2048" xml:space="preserve">
<g id="numbers">
	<g>
		<path  231F20" d="M357.9,1501H239.3V745c-28.6,27.2-66,54.5-112.4,81.7C80.5,853.9,38.9,874.4,2,888V773.3
			c66.3-31.2,124.3-68.9,174-113.4c49.6-44.3,84.8-87.4,105.5-129.2h76.5V1501z"/>
		<path  231F20" d="M1285.3,1387v114H646.6c-0.9-28.5,3.7-56,13.8-82.3c16.2-43.5,42.3-86.4,78.1-128.6
			c35.8-42.2,87.5-91,155.2-146.3c105-86,176-154.3,212.9-204.6c36.9-50.3,55.4-97.9,55.4-142.7c0-47-16.8-86.7-50.4-119
			c-33.6-32.3-77.4-48.4-131.5-48.4c-57.1,0-102.8,17.1-137.1,51.4c-34.3,34.3-51.7,81.7-52.1,142.4l-121.9-12.6
			c8.3-91,39.8-160.2,94.3-207.9c54.5-47.7,127.6-71.5,219.5-71.5c92.7,0,166.1,25.8,220.2,77.2C1257,659.3,1284,723,1284,799
			c0,38.6-7.9,76.7-23.7,114c-15.8,37.4-42.1,76.7-78.8,118c-36.7,41.3-97.7,98-182.9,170.1c-71.2,59.7-116.9,100.3-137.1,121.6
			c-20.2,21.3-36.9,42.7-50.1,64.3H1285.3z"/>
		<path  231F20" d="M1413.2,1245.9l118.6-15.8c13.6,67.2,36.8,115.6,69.5,145.3c32.7,29.7,72.6,44.5,119.6,44.5
			c55.8,0,102.9-19.4,141.4-58c38.4-38.7,57.7-86.6,57.7-143.7c0-54.5-17.8-99.5-53.4-134.8c-35.6-35.4-80.9-53.1-135.8-53.1
			c-22.4,0-50.3,4.4-83.7,13.2l13.2-104.1c7.9,1,14.3,1.3,19.1,1.3c50.5,0,96-13.2,136.4-39.5c40.4-26.4,60.6-67,60.6-121.9
			c0-43.5-14.7-79.6-44.2-108.1c-29.5-28.6-67.5-42.9-114-42.9c-46.1,0-84.6,14.5-115.3,43.5c-30.8,29-50.5,72.5-59.3,130.5
			l-118.6-21.1c14.5-79.5,47.5-141.1,98.9-184.9c51.4-43.7,115.3-65.6,191.8-65.6c52.7,0,101.3,11.4,145.7,34
			c44.4,22.7,78.3,53.5,101.8,92.6c23.5,39.2,35.3,80.7,35.3,124.6c0,41.7-11.2,79.7-33.6,114c-22.4,34.3-55.6,61.6-99.5,81.7
			c57.1,13.2,101.5,40.6,133.1,82.1c31.6,41.5,47.5,93.5,47.5,155.9c0,84.4-30.8,155.9-92.3,214.5c-61.5,58.7-139.3,88-233.3,88
			c-84.8,0-155.2-25.2-211.3-75.7C1453.1,1391.8,1421.1,1326.4,1413.2,1245.9z"/>
	</g>
</g>
</svg>
