<?xml version="1.0" encoding="utf-8"?>
<!-- 2015 Edlio, Inc.-->
<svg version="1.1" xmlns="http://www.w3.org/2000/svg" xmlns:xlink="http://www.w3.org/1999/xlink" x="0px" y="0px"
	 viewBox="0 0 2048 2048" enable-background="new 0 0 2048 2048" xml:space="preserve">
<g id="home-info">
	<path d="M257.5,1184.9v766.5h1533v-766.5L1024,610L257.5,1184.9z M1200.1,1648.1c7.6,7.4,11.3,16.2,11.3,26.4v74.9
		c0,10.1-3.7,18.9-11.1,26.3s-16.2,11.1-26.3,11.1H874.1c-10.1,0-18.9-3.7-26.3-11.1c-7.4-7.4-11.1-16.2-11.1-26.3v-74.9
		c0-10.1,3.7-18.9,11.1-26.3s16.2-11.1,26.3-11.1h37.5v-224.8h-37.5c-10.1,0-18.9-3.7-26.3-11.1c-7.4-7.4-11.1-16.2-11.1-26.3V1300
		c0-10.1,3.7-18.9,11.1-26.3c7.4-7.4,16.2-11.1,26.3-11.1h224.8c10.1,0,18.9,3.7,26.3,11.1s11.1,16.2,11.1,26.3v337h37.5
		C1183.9,1637,1192.7,1640.7,1200.1,1648.1z M1125.3,973.7c7.4,7.3,11.1,16.1,11.1,26.3v112.4c0,10.1-3.7,18.9-11.1,26.3
		s-16.2,11.1-26.3,11.1H949.1c-10.1,0-18.9-3.7-26.3-11.1c-7.4-7.4-11.1-16.2-11.1-26.3V1000c0-10.1,3.7-18.9,11.1-26.3
		c7.4-7.4,16.2-11.1,26.3-11.1H1099C1109.1,962.6,1117.9,966.3,1125.3,973.7z"/>
	<polygon points="1024,97 2,890.3 2,1213.7 1024,420.4 2046,1213.7 2046,890.3 	"/>
</g>
</svg>
