<?xml version="1.0" encoding="utf-8"?>
<!-- Generator: Adobe Illustrator 18.1.1, SVG Export Plug-In . SVG Version: 6.00 Build 0)  -->
<svg version="1.1" xmlns="http://www.w3.org/2000/svg" xmlns:xlink="http://www.w3.org/1999/xlink" x="0px" y="0px"
	 viewBox="0 0 2048 2048" enable-background="new 0 0 2048 2048" xml:space="preserve">
<g id="star-circle">
</g>
<g id="pinned-note">
</g>
<g id="banner">
</g>
<g id="spike">
</g>
<g id="countdown">
	<path d="M1088,386.4V256h256V128c0-70.7-57.3-128-128-128H832c-70.7,0-128,57.3-128,128v128h256v130.4
		C530.4,419.1,192,778,192,1216c0,459.5,372.5,832,832,832s832-372.5,832-832C1856,778,1517.6,419.1,1088,386.4z M1476.5,1668.5
		C1355.6,1789.4,1194.9,1856,1024,1856c-170.9,0-331.7-66.6-452.5-187.5C450.6,1547.7,384,1386.9,384,1216s66.6-331.7,187.5-452.5
		c116.1-116.1,268.9-182,432.2-187.1l-35.4,512.5L701.5,869.3c-6.6-5.7-16.9-5.2-23.5,1.3l0,0c-6.6,6.6-7.3,16.9-1.5,23.6
		l297.6,365.2c0,0,0,0.1,0.1,0.1l0.1,0.1c0.2,0.3,0.5,0.5,0.7,0.8c2.1,2.4,4.4,4.7,6.9,6.6c0.1,0.1,0.2,0.2,0.3,0.2
		c0.5,0.4,0.9,0.7,1.4,1.1c2.3,1.7,4.6,3.1,6.9,4.3c9.6,4.9,21,7.3,33.4,7.3c38.8,0,67.4-23,63.7-75.6l-43.4-628
		c163.3,5.1,316.2,71,432.2,187.1C1597.4,884.3,1664,1045.1,1664,1216S1597.4,1547.7,1476.5,1668.5z"/>
</g>
<g id="shuffles">
</g>
<g id="user-edit">
</g>
<g id="user-lock">
</g>
<g id="user-check">
</g>
<g id="book-plus">
</g>
<g id="book-open-plus">
</g>
<g id="teacher">
</g>
</svg>
