<svg xmlns="http://www.w3.org/2000/svg" viewBox="0 0 2048 2048">
<!-- 2018 Edlio, Inc.-->
	<path d="M1643,1700.86H833a57.86,57.86,0,0,1,0-115.72h810a57.86,57.86,0,0,1,0,115.72Zm57.86-289.29a57.85,57.85,0,0,0-57.86-57.86H833a57.86,57.86,0,0,0,0,115.72h810A57.84,57.84,0,0,0,1700.86,1411.57Zm0-231.43a57.84,57.84,0,0,0-57.86-57.85H833A57.86,57.86,0,1,0,833,1238h810A57.84,57.84,0,0,0,1700.86,1180.14Zm347.14-405V1903.36c0,79.75-64.89,144.64-144.64,144.64H572.64C492.89,2048,428,1983.11,428,1903.36V572.21l115.71,74.14v1257a29.32,29.32,0,0,0,28.93,28.93H1903.36a29.32,29.32,0,0,0,28.93-28.93V775.14h-405a57.84,57.84,0,0,1-57.86-57.85v-405H710.31L592.6,237.37a355.38,355.38,0,0,0-1.64-40.8h878.47c25.92,0,71.16,7.9,164.4,76.29C1688.59,313,1752.58,369,1814.08,430.49S1931.56,556,1971.71,610.74C2040.1,704,2048,749.22,2048,775.14ZM1863.49,659.43c-32.14-41.54-75.7-91.62-131.22-147.13s-105.56-99.08-147.13-131.22V659.43Z"/>
	<path d="M818.59,541.59A27.8,27.8,0,0,0,806,523.44L459.6,304.23q19.39-58,5.11-121.87Q443.77,88.79,362.85,37.46T188.36,7.07Q94.79,28,43.46,108.92T13.07,283.41Q34,377,114.92,428.31t174.49,30.4q64-14.32,108.26-56.73L744,621.16A29.33,29.33,0,0,0,784,612.22l31-48.85A27.79,27.79,0,0,0,818.59,541.59ZM271.5,193A57.5,57.5,0,1,1,329,135.5,57.5,57.5,0,0,1,271.5,193Z"/>
</svg>