<?xml version="1.0" encoding="utf-8"?>
<!-- Generator: Adobe Illustrator 18.1.1, SVG Export Plug-In . SVG Version: 6.00 Build 0)  -->
<svg version="1.1" xmlns="http://www.w3.org/2000/svg" xmlns:xlink="http://www.w3.org/1999/xlink" x="0px" y="0px"
	 viewBox="0 0 2048 2048" enable-background="new 0 0 2048 2048" xml:space="preserve">
<g id="star-circle">
</g>
<g id="pinned-note">
</g>
<g id="banner">
</g>
<g id="spike">
</g>
<g id="countdown">
</g>
<g id="shuffles">
</g>
<g id="user-edit">
	<path d="M794.6,1664H0c0-258,333.8-471.3,768-506.8v-105.6C627,972.2,512,774.1,512,576c0-318.1,0-576,384-576s384,257.9,384,576
		c0,81.3-19.4,162.5-51.9,235.6C959.7,911,768,1169.5,768,1472C768,1538.5,777.3,1602.9,794.6,1664z M1611.8,1611.8
		c-37.2,37.2-82,55.7-134.5,55.7c-52.5,0-97.4-18.6-134.5-55.7c-37.2-37.2-55.7-82-55.7-134.5c0-52.5,18.6-97.4,55.7-134.5
		c37.2-37.2,82-55.7,134.5-55.7c52.5,0,97.4,18.6,134.5,55.7c37.2,37.2,55.7,82,55.7,134.5
		C1667.5,1529.8,1648.9,1574.6,1611.8,1611.8z M2042.1,1378.8c-4-5.2-9.2-8.3-15.6-9.3l-136-20.8c-7.4-23.8-17.6-48.1-30.5-72.8
		c8.9-12.4,22.3-29.9,40.1-52.4c17.8-22.5,30.5-39,37.9-49.4c4-5.4,5.9-11.1,5.9-17.1c0-6.9-1.7-12.4-5.2-16.3
		c-17.8-25.3-58.7-67.4-122.6-126.3c-5.9-5-12.1-7.4-18.6-7.4c-7.4,0-13.4,2.2-17.8,6.7l-105.5,79.5c-20.3-10.4-42.6-19.6-66.9-27.5
		l-20.8-136.7c-0.5-6.4-3.3-11.8-8.5-16c-5.2-4.2-11.3-6.3-18.2-6.3h-165c-14.4,0-23.3,6.9-26.8,20.8
		c-6.4,24.8-13.6,70.8-21.6,138.2c-23.3,7.4-45.8,16.8-67.6,28.2l-102.6-79.5c-6.4-5-12.9-7.4-19.3-7.4c-10.9,0-34.3,17.7-70.2,53.1
		s-60.3,62.1-73.2,79.9c-4.5,6.4-6.7,12.1-6.7,17.1c0,5.9,2.5,11.9,7.4,17.8c33.2,40.1,59.7,74.3,79.5,102.6
		c-12.4,22.8-22,45.6-29,68.4l-138.2,20.8c-5.4,1-10.2,4.2-14.1,9.7s-5.9,11.1-5.9,17.1v165c0,6.4,2,12.3,5.9,17.5
		c4,5.2,9.2,8.3,15.6,9.3l136,20.1c6.9,24.3,17.1,48.8,30.5,73.6c-8.9,12.4-22.3,29.9-40.1,52.4c-17.8,22.5-30.5,39-37.9,49.4
		c-4,5.4-5.9,11.1-5.9,17.1c0,6.4,1.7,12.1,5.2,17.1c19.3,26.8,60.2,68.4,122.6,124.9c5.4,5.4,11.6,8.2,18.6,8.2
		c7.4,0,13.6-2.2,18.6-6.7l104.8-79.5c20.3,10.4,42.6,19.6,66.9,27.5l20.8,136.7c0.5,6.4,3.3,11.8,8.5,16c5.2,4.2,11.3,6.3,18.2,6.3
		h165c14.4,0,23.3-6.9,26.8-20.8c6.4-24.8,13.6-70.8,21.6-138.2c23.3-7.4,45.8-16.8,67.6-28.2l102.6,80.3c6.9,4.5,13.4,6.7,19.3,6.7
		c10.9,0,34.2-17.6,69.9-52.8c35.7-35.2,60.2-61.9,73.6-80.3c4.5-5,6.7-10.7,6.7-17.1c0-6.4-2.5-12.6-7.4-18.6
		c-35.7-43.6-62.2-77.8-79.5-102.6c9.9-18.3,19.6-40.9,29-67.6l137.5-20.8c5.9-1,10.9-4.2,14.9-9.7c4-5.4,5.9-11.1,5.9-17.1v-165
		C2048,1389.8,2046,1384,2042.1,1378.8z"/>
</g>
<g id="user-lock">
</g>
<g id="user-check">
</g>
<g id="book-plus">
</g>
<g id="book-open-plus">
</g>
<g id="teacher">
</g>
</svg>
