<?xml version="1.0" encoding="utf-8"?>
<!-- Generator: Adobe Illustrator 18.1.1, SVG Export Plug-In . SVG Version: 6.00 Build 0)  -->
<svg version="1.1" xmlns="http://www.w3.org/2000/svg" xmlns:xlink="http://www.w3.org/1999/xlink" x="0px" y="0px"
	 viewBox="0 0 2048 2048" enable-background="new 0 0 2048 2048" xml:space="preserve">
<g id="star-circle">
	<path d="M1743.7,819.9c0,12.6-7.5,26.4-22.4,41.4l-312.8,305.1l74.1,430.9c0.6,4,0.9,9.7,0.9,17.2c0,12.1-3,22.3-9,30.6
		c-6,8.3-14.8,12.5-26.3,12.5c-10.9,0-22.4-3.5-34.5-10.4l-386.9-203.4l-386.9,203.4c-12.6,6.9-24.1,10.4-34.5,10.4
		c-12.1,0-21.1-4.2-27.1-12.5c-6-8.3-9-18.5-9-30.6c0-3.5,0.6-9.2,1.7-17.2l74.1-430.9L331.2,861.2c-14.4-15.5-21.5-29.3-21.5-41.4
		c0-21.3,16.1-34.5,48.3-39.6l432.6-62.9l193.9-392.1c10.9-23.5,25-35.3,42.2-35.3c17.2,0,31.3,11.8,42.2,35.3l193.9,392.1
		l432.6,62.9C1727.6,785.4,1743.7,798.6,1743.7,819.9z M1024,2048C459.4,2048,0,1588.7,0,1024C0,459.4,459.4,0,1024,0
		c564.7,0,1024,459.4,1024,1024C2048,1588.7,1588.7,2048,1024,2048z M1024,193c-458.2,0-831,372.8-831,831
		c0,458.2,372.8,831,831,831c458.2,0,831-372.8,831-831C1855,565.8,1482.2,193,1024,193z"/>
</g>
<g id="pinned-note">
</g>
<g id="banner">
</g>
<g id="spike">
</g>
<g id="countdown">
</g>
<g id="shuffles">
</g>
<g id="user-edit">
</g>
<g id="user-lock">
</g>
<g id="user-check">
</g>
<g id="book-plus">
</g>
<g id="book-open-plus">
</g>
<g id="teacher">
</g>
</svg>
