<?xml version="1.0" encoding="utf-8"?>
<!-- 2015 Edlio, Inc.-->
<svg version="1.1" xmlns="http://www.w3.org/2000/svg" xmlns:xlink="http://www.w3.org/1999/xlink" x="0px" y="0px"
	 viewBox="0 0 2048 2048" enable-background="new 0 0 2048 2048" xml:space="preserve">
<g id="letters">
	<g>
		<path  231F20" d="M535.1,1314.9c0,19.3,0.4,38.8,1.3,58.6c0.8,19.8,2.1,37.6,3.8,53.5h84.5v63H423.1l-12.8-119.7H404
			c-4.2,16.8-12,33.2-23.3,49.1c-11.4,16-25.7,30.3-42.9,42.9c-17.2,12.6-37.6,22.6-61.1,30.2c-23.5,7.6-49.6,11.4-78.1,11.4
			c-28.6,0-54.8-4.2-78.8-12.6c-23.9-8.4-44.7-20.2-62.4-35.3c-17.7-15.1-31.3-33.4-41-54.8C6.8,1379.8,2,1355.6,2,1328.8
			c0-41.2,8.6-75.2,25.8-102.1c17.2-26.9,42.6-48.1,76.2-63.6c33.6-15.6,75.6-26.7,126-33.4s109.2-10.5,176.4-11.3
			c1.7-13.3,2.5-26,2.5-38s0-23.9,0-35.6c0-51.5-8.8-90.8-26.5-117.8c-17.6-27-49.1-40.5-94.5-40.5c-16.8,0-34.9,0.9-54.2,2.5
			c-19.4,1.7-37,6.6-52.9,14.8v113.7H67.5V877.6c30.4-15.9,66.3-30.3,107.7-42.8c41.4-12.6,90-19,145.7-19
			c48.1,0,86.8,6.2,115.9,18.3c29.1,12.2,51.5,28.2,67.1,47.9c15.6,19.8,25.8,42,30.4,66.8c4.6,24.8,7,49.3,7,73.7
			c0,52.9-1,103.6-3.1,151.9C536.1,1222.7,535.1,1269.5,535.1,1314.9z M256.6,1419.5c20.2,0,38.2-3.1,54.2-9.4
			c16-6.3,30-14.3,42.2-23.9c12.2-9.7,22.7-20.4,31.5-32.2c8.8-11.8,16.2-23.1,22-34v-150c-54.6,0-98.9,3.6-132.9,10.7
			c-34,7.2-60.7,16.6-80,28.4c-19.3,11.8-32.6,25.8-39.7,42.2c-7.1,16.4-10.7,33.8-10.7,52.3c0,37.8,10.1,66.6,30.2,86.3
			C193.5,1409.6,221.3,1419.5,256.6,1419.5z"/>
		<path  231F20" d="M772,607.9H667.4v-63h236.9v413.4h3.8c15.9-44.5,42.7-79.4,80.4-104.6c37.7-25.2,80-37.8,127-37.8
			c85.4,0,151,27,196.7,80.7c45.7,53.8,68.5,137.3,68.5,250.8c0,116.8-31.7,205.2-94.9,265.3c-63.3,60.1-153.6,90.1-271,90.1
			c-23.5,0-47.2-1.5-71-4.4c-23.9-3-46.9-6.7-69.2-11.3s-42.1-9.8-59.7-15.8c-17.6-5.8-31.8-12.2-42.7-18.9V607.9z M1074.4,900.3
			c-45.4,0-81.7,13.7-109,40.9c-27.3,27.3-47.7,62.4-61.1,105.2v366.7c16.8,9.2,37.2,16.6,61.1,22c23.9,5.5,49.8,8.2,77.5,8.2
			c62.1,0,110.4-25.2,144.9-75.6c34.5-50.5,51.7-123.9,51.7-220.5c0-34.5-3-66.8-8.8-97c-5.9-30.3-15.6-56.5-29-78.8
			c-13.4-22.3-30.5-39.7-51-52.3C1130.1,906.6,1104.7,900.3,1074.4,900.3z"/>
		<path  231F20" d="M2046,1405.6c-17.7,24.4-45.6,46.8-83.8,67.4c-38.2,20.6-83.4,30.9-135.5,30.9c-55.5,0-104-8.2-145.6-24.6
			c-41.6-16.4-76.2-39.4-104-69.3c-27.8-29.8-48.3-66-61.7-108.4c-13.5-42.4-20.2-89.7-20.2-141.8c0-111.7,29.6-197,88.9-255.8
			c59.2-58.8,139.6-88.2,241.3-88.2c46.2,0,84.4,3,114.7,8.9c30.2,5.8,58,15.1,83.2,27.7v163.9h-113.4V897.5
			c-12.6-7.4-38-11.1-76-11.1c-32.1,0-60.4,4.6-84.8,13.8c-24.5,9.2-45.2,24.2-62,45.1c-16.9,20.9-29.6,48.9-38,84.1
			s-12.6,78.1-12.6,129.2c0,33.5,4.6,65.4,13.9,95.9c9.2,30.5,23.1,57.3,41.7,80.3s41.9,41.2,70.1,54.5
			c28.2,13.4,61.3,20.1,99.3,20.1c20.2,0,38.1-2.1,53.7-6.3c15.6-4.2,29.3-8.6,41.1-13.2c11.8-4.6,22.3-9.8,31.6-15.8
			c9.3-5.8,18.1-12.2,26.6-18.9L2046,1405.6z"/>
	</g>
</g>
</svg>
