<?xml version="1.0" encoding="utf-8"?>
<!-- Generator: Adobe Illustrator 18.1.1, SVG Export Plug-In . SVG Version: 6.00 Build 0)  -->
<svg version="1.1" xmlns="http://www.w3.org/2000/svg" xmlns:xlink="http://www.w3.org/1999/xlink" x="0px" y="0px"
	 viewBox="0 0 2048 2048" enable-background="new 0 0 2048 2048" xml:space="preserve">
<g id="star-circle">
</g>
<g id="pinned-note">
</g>
<g id="banner">
</g>
<g id="spike">
	<path fill="#231F20" d="M2048,1806.4h-366.5c0-100.3-36-187-107.8-258.8c-71.8-73.3-158.6-109.2-258.9-109.2
		c-100.2,0-187,35.9-258.8,109.2c-70.3,71.8-106.3,158.6-106.3,258.8H592.2v-118.2v-264.7v-7.8c109.3-19.5,205.8-70.9,287.6-153.6
		c30.7-30.7,56.9-63.3,78.9-97.6v0.8c108.9-60.8,228-91.9,356.1-91.9c202,0,375.5,71.8,517.7,215.4
		C1976.1,1430.9,2048,1604.5,2048,1806.4 M981.4,906.1c-0.9,33.3-5.6,65.5-13.1,96.8c-0.9,3.8-1.8,7.5-2.7,11.3
		c-1,3.8-2,7.5-3.1,11.3c-0.8,3.1-2,6.1-2.9,9.1c-1.4,4.4-2.8,8.7-4.2,13.1c-1.4,4.2-2.7,8.4-4.3,12.6c-3.3,8.9-6.8,17.7-10.6,26.4
		c-0.2,0.4-0.4,0.9-0.6,1.3c-0.1,0.1-0.2,0.3-0.2,0.4c-0.8,1.9-1.7,3.7-2.6,5.5c-6,13.2-12.7,26.1-20,38.7
		c-20.4,35.7-45.2,68.6-75.1,98.3c-1.4,1.5-2.7,3-4.2,4.4c-1,1-2.2,2-3.2,3.1c-1.3,1.2-2.5,2.4-3.8,3.6
		c-47.8,45.7-100.5,79.7-157.8,102.4c-4.5,1.9-9.1,3.5-13.7,5.2c-3.5,1.2-6.9,2.7-10.4,3.8c-48.8,16.7-100.5,24.9-155,24.9
		c-1.2,0-2.3,0.1-3.5,0.1c-1.6,0-3.1-0.1-4.7-0.1c-1.4,0-2.8-0.1-4.2-0.1c-4.5-0.1-9-0.1-13.4-0.3c-7.1-0.2-14.2-0.8-21.2-1.3
		c-2.6-0.2-5.2-0.4-7.8-0.6c-6-0.6-12-1.3-17.9-2.1c-3.8-0.5-7.5-1.1-11.3-1.7c-4.5-0.7-9-1.4-13.5-2.2c-18.9-3.5-37.3-8.3-55.3-14
		c-1.2-0.4-2.4-0.7-3.5-1.1c-6-1.9-12-3.9-17.8-6.1c-8.8-3.2-17.4-6.5-25.9-10.2c-64.6-27.8-122.2-70.1-172.5-126.8
		c-12.1-14-23.3-28.3-33.6-42.9c-1.2-1.7-2.3-3.3-3.4-5c-6.7-9.7-13-19.4-18.9-29.4c-1.7-2.8-3.2-5.6-4.8-8.5
		c-5.3-9.3-10.2-18.7-14.8-28.3c-1-2-2-4-2.9-6c-5.6-12-10.4-24.2-14.9-36.5c-0.2-0.5-0.3-1-0.5-1.5C9.2,1002.6,0.1,948.3,0.1,891
		c0-1.1-0.1-2.2-0.1-3.3c0-1.4,0.1-2.7,0.1-4.1c0-2,0.1-3.9,0.2-5.9c0-3.4,0.1-6.8,0.2-10.1c0.3-10,0.9-19.9,1.9-29.7l26.3-405.6
		c43,28.8,81.6,64.1,115.8,107.2c29.6-29.8,61.6-55.2,96.3-75.7l314.7-222.3c4.4,48.1,1.5,96.9-8.6,146.7l314.9-33.2
		c-21,47.1-49.2,91-85.7,131.8c30,21.4,57.8,46.8,83,75.5c36.8-40.5,77.4-73.3,122.1-99.1V854C982,871.2,982.3,888.5,981.4,906.1
		 M735.8,886.1c-0.1-7.8-0.4-15.4-1-23c0,0,0-0.1,0-0.2c-0.7-7.8-1.9-15.5-3.3-23.1c-0.1-0.4-0.1-0.8-0.2-1.1
		c-1.3-6.5-2.9-12.8-4.6-19.1c-0.5-1.9-1-3.8-1.6-5.7c-1.3-4.3-2.9-8.6-4.5-12.8c-1.5-4-3-8-4.7-11.9c-0.8-1.9-1.8-3.8-2.7-5.7
		c-9.7-20.2-22.4-39.5-38.3-57.6c-11-12.6-22.8-23.7-35.2-33.4c-0.6-0.4-1.2-0.9-1.8-1.4c-5.5-4.3-11.2-8.2-17-11.9
		c-1.2-0.7-2.5-1.5-3.7-2.2c-5.5-3.3-11-6.5-16.7-9.3c-1.4-0.7-2.7-1.3-4.1-2c-5.7-2.7-11.5-5.3-17.5-7.5c-1.4-0.5-2.8-1-4.2-1.5
		c-5.9-2.1-11.9-4-18.1-5.7c-1.7-0.5-3.5-0.9-5.2-1.3c-5.7-1.4-11.4-2.6-17.3-3.6c-3-0.5-6.1-0.9-9.1-1.3c-4.4-0.6-8.8-1.1-13.2-1.5
		c-5.9-0.5-11.9-0.7-18-0.8c-1.4,0-2.7-0.1-4.1-0.1c-15.4,0.1-30.3,1.4-44.7,4c-2.3,0.4-4.7,0.9-7,1.4c-3.7,0.8-7.3,1.8-11,2.7
		c-5.5,1.5-10.9,3.1-16.2,4.9c-3,1-6,2-8.9,3.2c-3.9,1.6-7.9,3.2-11.7,5c-0.2,0.1-0.4,0.2-0.6,0.3c-8,3.7-16,8-23.8,12.7
		c-1.4,0.9-2.8,1.7-4.2,2.6c-3.2,2-6.3,4.1-9.5,6.3c-12,8.5-23.6,18-34.5,29c-10.9,10.9-20.4,22.3-28.8,34.2
		c-1.2,1.7-2.5,3.4-3.7,5.2c-1.9,3-3.6,6.1-5.4,9.1c-2.4,4.1-4.9,8.3-7.1,12.6c-0.2,0.5-0.4,1-0.7,1.4
		c-10.1,20.3-17.4,42.5-21.9,66.3c-0.6,3.2-0.9,6.5-1.3,9.8c-0.5,4.2-1.1,8.4-1.5,12.6c-1.1,15.4-0.9,31.1,0.8,47.3
		c1.3,12.3,3.6,24.2,6.5,35.7c7.4,27.6,19.8,54,37.6,79.3c38.7,54.8,91.8,88.4,158,100.5c3.3,0.6,6.5,0.8,9.8,1.2
		c4.5,0.6,9,1.2,13.7,1.5c1.5,0.1,3.1,0.2,4.7,0.3c5.9,0.3,11.8,0.4,17.6,0.3c3.8-0.1,7.6-0.3,11.4-0.5c3.7-0.2,7.3-0.4,10.9-0.8
		c4.6-0.5,9.1-1.1,13.5-1.8c3.2-0.5,6.5-1,9.7-1.7c4-0.8,7.9-1.7,11.7-2.7c4.2-1.1,8.4-2.2,12.6-3.5c2.4-0.7,4.8-1.5,7.1-2.3
		c28.4-10.1,55-25.6,79.6-46.7c5.3-4.7,10.2-9.6,15-14.5c4.8-5,9.4-10.2,13.9-15.7c18.9-23.3,32.4-48.1,41.6-74.2
		c1.4-4.3,2.9-8.5,4.1-13c0.7-2.6,1.3-5.3,1.9-8c1.2-5,2.3-10.1,3.2-15.2c0.5-3.2,0.9-6.5,1.4-9.8c0.6-4.3,1.1-8.6,1.4-13
		c0.4-5.4,0.7-10.9,0.7-16.5C735.7,889.9,735.8,888,735.8,886.1"/>
</g>
<g id="countdown">
</g>
<g id="shuffles">
</g>
<g id="user-edit">
</g>
<g id="user-lock">
</g>
<g id="user-check">
</g>
<g id="book-plus">
</g>
<g id="book-open-plus">
</g>
<g id="teacher">
</g>
</svg>
