<?xml version="1.0" encoding="utf-8"?>
<!-- Generator: Adobe Illustrator 18.1.1, SVG Export Plug-In . SVG Version: 6.00 Build 0)  -->
<svg version="1.1" xmlns="http://www.w3.org/2000/svg" xmlns:xlink="http://www.w3.org/1999/xlink" x="0px" y="0px"
	 viewBox="0 0 2048 2048" enable-background="new 0 0 2048 2048" xml:space="preserve">
<g id="star-circle">
</g>
<g id="pinned-note">
</g>
<g id="banner">
</g>
<g id="spike">
</g>
<g id="countdown">
</g>
<g id="shuffles">
</g>
<g id="user-edit">
</g>
<g id="user-lock">
	<path d="M959,1664H0c0-258,334-471.3,768-506.8v-105.6C627,972.2,512,774.1,512,576c0-318.1,0-576,384-576s384,257.9,384,576
		c0,198.1-115,396.2-256,475.6v105.6c17,1.4,28.4,2.4,45.3,4.4c-0.3,53.9-0.3,149.7-0.3,149.7c-69.5,0-110,49.7-110,111.2V1664z
		 M1370,1265.3c0-57.6,20.2-106.7,60.9-147.4c40.7-40.7,89.8-61.1,147.3-61.1s106.8,20.4,147.5,61.1c40.7,40.7,61.2,89.9,61.2,147.4
		V1422h-417V1265.3z M2024.3,1444.7c-15.2-15.2-33.5-22.7-55.2-22.7H1943v-156.7c0-99.9-35.8-185.7-107.5-257.4
		c-71.7-71.7-157.5-107.5-257.4-107.5s-185.8,35.8-257.5,107.5c-71.7,71.7-107.6,157.5-107.6,257.4V1422h-25.8
		c-21.7,0-40.2,7.5-55.4,22.7c-15.2,15.2-22.8,33.5-22.8,55.2v469.1c0,21.7,7.6,40.1,22.8,55.3c15.2,15.2,33.7,22.7,55.4,22.7h781.9
		c21.7,0,40-7.5,55.2-22.7s22.7-33.5,22.7-55.3v-469.1C2047,1478.2,2039.5,1459.9,2024.3,1444.7z"/>
</g>
<g id="user-check">
</g>
<g id="book-plus">
</g>
<g id="book-open-plus">
</g>
<g id="teacher">
</g>
</svg>
