<?xml version="1.0" encoding="utf-8"?>
<!-- Generator: Adobe Illustrator 20.1.0, SVG Export Plug-In . SVG Version: 6.00 Build 0)  -->
<svg version="1.1" id="Layer_1" xmlns="http://www.w3.org/2000/svg" xmlns:xlink="http://www.w3.org/1999/xlink" x="0px" y="0px"
	 viewBox="0 0 2048 2048" style="enable-background:new 0 0 2048 2048;" xml:space="preserve">
<style type="text/css">
	.st0{display:none;}
	.st1{fill:#FFFFFF;}
</style>
<g id="star-circle">
</g>
<g id="pinned-note">
</g>
<g id="banner">
</g>
<g id="spike">
</g>
<g id="countdown">
</g>
<g id="shuffles">
</g>
<g id="user-edit">
</g>
<g id="user-lock">
</g>
<g id="user-check">
</g>
<g id="book-plus">
</g>
<g id="book-open-plus">
</g>
<g id="teacher">
</g>
<g id="spike-drawn">
</g>
<g id="arrow">
</g>
<g id="guides" class="st0">
</g>
<path d="M909.8,1592.9c0,0-6,60,6,108H224.7c0,0-105-9-123-114V136.5c0,0-7.5-125.2,134.3-132.5h828.8c0,0,81.7-8.4,307.9,214.2
	c0,0,190.2,174.6,214.2,303.6v582.1c0,0-66-24-102-30v-540h-345c0,0-78,6-82.6-53V110H272.7c0,0-60.5-10.7-63.2,26.5v1402.4
	c0,0-14.8,54,36.2,54C245.7,1592.9,915.8,1592.9,909.8,1592.9z"/>
<path class="st1" d="M1169.8,191.7v233h243C1412.9,424.8,1346.9,287.7,1169.8,191.7z"/>
<path d="M1347,1302c0,0-43,16-50,22l-70-57c0,0-11-15-29-7c0,0-48,34-101,100c0,0-10,9,1,25c0,0,51,62,59,76c0,0-17,32-20,51l-97,14
	c0,0-22-1-23,23v123c0,0-2,16,17,22l100,14c0,0,16,40,24,57l-57,74c0,0-11,15-3,27c0,0,43,50,92,94c0,0,6,12,28,3l80-60l50,20
	l17,101c0,0,1,15,17,20l129-1c0,0,16,0,20-19c0,0,9-39,13-101c0,0,37-11,52-22l72,55c0,0,15,21,35,4c0,0,38-26,90-89c0,0,18-13,0-35
	l-57-72c0,0,15-25,21-53l98-15c0,0,20,1,22-19l-1-121c0,0,5-23-20-25l-96-15c0,0-10-38-25-54l57-75c0,0,12-13,3-30c0,0-33-42-91-92
	c0,0-11-15-28-3l-80,60c0,0-21-9-51-20l-15-96c0,0,1-23-22-24h-121c0,0-22-3-22,18L1347,1302z"/>
<circle class="st1" cx="1445" cy="1612" r="140"/>
</svg>
