<?xml version="1.0" encoding="utf-8"?>
<!-- Svg Vector Icons : http://www.onlinewebfonts.com/icon -->
<!DOCTYPE svg PUBLIC "-//W3C//DTD SVG 1.1//EN" "http://www.w3.org/Graphics/SVG/1.1/DTD/svg11.dtd">
<svg version="1.1" xmlns="http://www.w3.org/2000/svg" xmlns:xlink="http://www.w3.org/1999/xlink" x="0px" y="0px" viewBox="0 0 1000 1000" enable-background="new 0 0 1000 1000" xml:space="preserve">
<metadata> Svg Vector Icons : http://www.onlinewebfonts.com/icon </metadata>
<g><path d="M497.9,693.4l63.7-63.7l-83.5-83.5l-63.7,63.7v30.8h52.8v52.7H497.9z M721.5,298.4L529.2,490.7c-6,6-6.6,12.1-0.5,18.1c6,6,12.1,5.5,18.1-0.6l192.3-192.3c6-6,6.6-12.1,0.6-18.1C733.6,291.8,727.5,292.3,721.5,298.4L721.5,298.4z M783.6,624.2v104.4c0,43.4-15.4,80.8-46.7,112.1c-30.8,30.8-68.1,46.2-111.5,46.2H168.2c-43.4,0-80.8-15.4-112.1-46.2C25.4,809.3,10,772,10,728.6V271.4c0-43.4,15.4-80.8,46.2-111.5c31.3-31.3,68.7-46.7,112.1-46.7h457.1c23.1,0,44.5,4.4,64.3,13.7c5.5,2.7,8.8,6.6,9.9,12.6c1.1,6-0.5,11.5-4.9,15.9l-26.9,26.9c-4.9,4.9-11,6.6-17.6,4.4c-8.2-2.2-16.5-3.3-24.7-3.3H168.2c-24.2,0-45,8.8-62.1,25.8c-17,17-25.8,37.9-25.8,62.1v457.1c0,24.2,8.8,45,25.8,62.1c17,17,37.9,25.8,62.1,25.8h457.1c24.2,0,45.1-8.8,62.1-25.8c17-17,25.8-37.9,25.8-62.1v-69.2c0-4.9,1.6-8.8,4.9-12.1l35.2-35.2C764.3,601.1,783.6,608.8,783.6,624.2L783.6,624.2z M730.8,218.7L889,376.9L519.9,746.1H361.6V587.9L730.8,218.7z M974.8,291.2l-50.5,50.5L766,183.5l50.5-50.5c20.3-20.3,54.4-20.3,74.7,0l83.5,83.5C995.1,236.8,995.1,270.9,974.8,291.2z"/></g>
</svg>