<?xml version="1.0" encoding="utf-8"?>
<!-- Generator: Adobe Illustrator 19.1.0, SVG Export Plug-In . SVG Version: 6.00 Build 0)  -->
<svg version="1.1" id="Layer_1" xmlns="http://www.w3.org/2000/svg" xmlns:xlink="http://www.w3.org/1999/xlink" x="0px" y="0px"
	 viewBox="0 0 2048 2048" enable-background="new 0 0 2048 2048" xml:space="preserve">
<g>
	<g enable-background="new    ">
		<path  010101" d="M1963.9,447.6v1445.7c0,39.1-14.3,73.3-42.8,101.8c-28.6,28.6-62.7,42.8-101.8,42.8H228.8
			c-39.1,0-73.3-14.3-101.8-42.8s-42.8-62.7-42.8-101.8V447.6c0-39.1,14.3-73.3,42.8-101.8c28.6-28.6,62.7-42.8,101.8-42.8h144.7
			V194.2c0-49.7,17.4-92.5,52.8-127.9s77.6-52.8,127.9-52.8h72c49.7,0,92.5,18,127.9,52.8c35.4,35.4,52.8,77.6,52.8,127.9v108.7
			h433.5V194.2c0-49.7,17.4-92.5,52.8-127.9s77.6-52.8,127.9-52.8h72c49.7,0,92.5,18,127.9,52.8c35.4,35.4,52.8,77.6,52.8,127.9
			v108.7h144.7c39.1,0,73.3,14.3,101.8,42.8C1949.6,374.3,1963.9,408.5,1963.9,447.6z M228.8,1893.3h1590.4V736.4H228.8V1893.3z
			 M662.9,519.6V194.2c0-10.6-3.1-19.3-9.9-26.1s-15.5-9.9-26.1-9.9h-72.7c-10.6,0-19.3,3.1-26.1,9.9s-9.9,15.5-9.9,26.1v325.4
			c0,10.6,3.1,19.3,9.9,26.1s15.5,9.9,26.1,9.9h72c10.6,0,19.3-3.1,26.1-9.9C659.2,538.9,662.9,530.2,662.9,519.6z M1529.8,519.6
			V194.2c0-10.6-3.1-19.3-9.9-26.1s-15.5-9.9-26.1-9.9h-72c-10.6,0-19.3,3.1-26.1,9.9c-6.8,6.8-9.9,15.5-9.9,26.1v325.4
			c0,10.6,3.1,19.3,9.9,26.1s15.5,9.9,26.1,9.9h72c10.6,0,19.3-3.1,26.1-9.9C1526.7,538.9,1529.8,530.2,1529.8,519.6z"/>
	</g>
</g>
<g>
	<g enable-background="new    ">
		<path  010101" d="M1488.5,1077.3c0,16.1-5.6,29.8-16.8,41l-434.1,434.1l-81.3,81.3c-11.2,11.2-24.8,16.8-41,16.8
			s-29.8-5.6-41-16.8l-80.7-81.3L576.3,1335c-11.2-11.2-16.8-24.8-16.8-41s5.6-29.8,16.8-41l81.3-81.3c11.2-11.2,24.8-16.8,41-16.8
			c16.1,0,29.8,5.6,41,16.8l176.4,177L1309,955c11.2-11.2,24.8-16.8,41-16.8c16.1,0,29.8,5.6,41,16.8l81.3,81.3
			C1482.9,1047.5,1488.5,1061.1,1488.5,1077.3z"/>
	</g>
</g>
<g>
</g>
<g>
</g>
<g>
</g>
<g>
</g>
<g>
</g>
<g>
</g>
</svg>
