<?xml version="1.0" encoding="utf-8"?>
<!-- Generator: Adobe Illustrator 18.1.1, SVG Export Plug-In . SVG Version: 6.00 Build 0)  -->
<svg version="1.1" id="Layer_1" xmlns="http://www.w3.org/2000/svg" xmlns:xlink="http://www.w3.org/1999/xlink" x="0px" y="0px"
	 viewBox="0 0 221.4 275.7" enable-background="new 0 0 221.4 275.7" xml:space="preserve">
<g>
	<path d="M120.1,146.9v77.8h-92v-150h21.4c-0.3-3-0.5-6.2-0.5-9.7c0-5,0.5-9.3,1.5-15.3H21.7c-7.7,0-13.5,6.6-13.5,14.4v192
		c0,7.7,5.8,13.6,13.5,13.6h104c7.7,0,14.5-5.9,14.5-13.6V149.9C130.1,149.1,123.1,147.8,120.1,146.9z M74.2,260.6
		c-6.9,0-12.5-5.6-12.5-12.5s5.6-12.5,12.5-12.5s12.5,5.6,12.5,12.5S81.1,260.6,74.2,260.6z"/>
	<path d="M140.9,3.8c-50.5,0-73.7,34.3-73.7,63.7c0,24.7,13,34.8,13,34.8c-1.2,16.3-13,40.2-13,40.2c27.7-2.3,49.1-16,49.1-16
		s8.1,2.9,25.6,3.3c35.3,1,74.1-24,74.7-62.8C217.4,28.2,181.2,3.8,140.9,3.8z M110.1,76.6c-6.1,0-11-4.9-11-11c0-6.1,4.9-11,11-11
		c6.1,0,11,4.9,11,11C121.1,71.7,116.1,76.6,110.1,76.6z M143.9,76.6c-6.1,0-11-4.9-11-11c0-6.1,4.9-11,11-11c6.1,0,11,4.9,11,11
		C154.9,71.7,150,76.6,143.9,76.6z M177.7,76.6c-6.1,0-11-4.9-11-11c0-6.1,4.9-11,11-11s11,4.9,11,11
		C188.7,71.7,183.8,76.6,177.7,76.6z"/>
</g>
</svg>
