<?xml version="1.0" encoding="utf-8"?>
<!-- Generator: Adobe Illustrator 18.1.1, SVG Export Plug-In . SVG Version: 6.00 Build 0)  -->
<svg version="1.1" xmlns="http://www.w3.org/2000/svg" xmlns:xlink="http://www.w3.org/1999/xlink" x="0px" y="0px"
	 viewBox="0 0 2048 2048" enable-background="new 0 0 2048 2048" xml:space="preserve">
<g id="spike-back-to-school">
</g>
<g id="spike-superhero">
</g>
<g id="spike-construction-text">
</g>
<g id="spike-construction">
	<g id="spike_5_">
		<path fill="#D12430" d="M2033.9,1803.5c-52.8-2.3-105.6-4.6-158.4-6.9c-37.9-1.7-75.8-3.3-113.7-5c-14.2-0.6-28.4-1.2-42.6-1.9
			c-5-0.2-17.3,1.6-21.7-1c-3.4-2-1.5-6.5-1.4-11.6c0.2-16.8-0.7-33.7-2.9-50.3c-4-30.5-12.3-60.4-24.8-88.5
			c-25.5-57.3-68.6-108.5-119.6-144.9c-101.4-72.3-245.3-79.6-353.5-17.8c-54.3,31-101.2,77.5-132.1,131.9
			c-14.9,26.2-25.9,54.3-33,83.6c-3.6,15-6.2,30.3-7.8,45.7c-0.5,4.8,0.4,20-2.7,22.3c-3,2.2-17.7-0.8-21.1-0.9
			c-13.7-0.6-27.4-1.2-41.1-1.8c-38-1.7-76-3.3-114-5c-36-1.6-72-3.2-108-4.7c-7.1-0.3-40,2.7-44.4-2.5c-4.1-4.9,1.5-33.6,1.7-39.8
			c0.8-18.8,1.7-37.7,2.5-56.5c0.7-15.6,1.4-31.3,2.1-46.9c3-67.6,5.9-135.2,8.9-202.8c0.1-1.9-0.2-4.3,0.3-6.2
			c0.3-1.2-0.3-2.8,0.2-3.9c2.7-6.1,9.8-4.9,17.3-6.2c31.8-5.4,63.2-13.9,93.3-25.5c61.9-23.9,117.6-61,165.9-106.4
			c26.6-25,50.8-52.5,71.8-82.3c19.3-4.8,42.4-19.2,62.7-27c25-9.5,50.6-17.6,76.6-24c48.4-12,98.2-18.3,148.1-19.3
			c89.3-1.7,179.7,12.6,263.1,45c164.3,63.7,303.6,201,374.6,361.8C2021.8,1598.1,2038.4,1701.1,2033.9,1803.5 M1086.6,930
			c-11.2,157.6-109.7,299.5-250.4,369.9c-141.1,70.6-319.1,60.1-450.8-27.1c-132.3-87.6-210.9-241-203.2-399.4
			c3.2-66.9,13.8-134.1,21-200.7c7.9-72.7,15.9-145.5,23.8-218.2c39.3,28.9,73.8,64,102.4,103.5c47.9-44.2,108-76.3,162.9-111.5
			c60.8-39.1,121.7-78.2,182.5-117.3c15.2-9.8,30.4-19.5,45.6-29.3c2.1,45.4-2.9,90.9-13.9,135c97.2-6,194.5-11.9,291.7-17.9
			c-21.7,43.5-50.4,83.3-84.3,118.1c27.3,21.4,51.8,46.1,73.5,73c34.2-34.6,73.5-64,116.6-86.5c-4.8,109.4-9.6,218.8-14.4,328.2
			C1088.7,876.5,1089.2,903.6,1086.6,930 M860.9,901.7c3.4-93.9-54-184.6-142.1-219.1c-86.6-33.9-186.2-11.2-249.6,56.6
			c-68.1,72.9-78.3,184.8-26.7,269.9c46.1,76.1,131.9,118.1,220.4,108C772.1,1104.7,856.1,1010.5,860.9,901.7"/>
	</g>
	<path id="hat_1_" fill="#F9EC31" d="M1098.3,1068.5L1,731.5l79.2-77c0,0,131.3-253.1,213.9-325.7c89.9-79,209.8-132.8,344.6-139.4
		c48.7-2.4,99.4,1.4,151.2,12.4c356,75.3,399.4,433.4,397.1,504.1C1181.4,876,1098.3,1068.5,1098.3,1068.5z"/>
	<path id="hat-line_1_" fill="#FAAF40" d="M340.9,638.8l-78.2-28.9C266.8,598.7,366,337.8,602.5,312
		c256.1-27.9,361.3,139.7,365.7,146.8L897,502.3c-3.2-5.1-84.1-128.9-285.5-107.4C425.7,415.2,341.7,636.6,340.9,638.8z"/>
	<path id="pants_2_" fill="#3399FF" d="M1387.3,1434.8l28.6-335.2c0,0,281.8-2.7,488.1,273.4c154.1,206.2,129.9,430.5,129.9,430.5
		l-338-14.8c0,0,20.2-144.8-115.9-270.2C1493.4,1438.9,1387.3,1434.8,1387.3,1434.8z"/>
	<g id="pocket_1_">
		<polygon fill="#1B75BB" points="1582.1,1407.6 1735.6,1278.1 1840.6,1402.5 1796.4,1507.3 1686.3,1533.9 		"/>
	</g>
	<path id="belt_2_" fill="#231F20" d="M1460.3,1451c0,0-39.9-15-103.4-15c-63.5,0-103.4,15-103.4,15v-348c0,0,51.6-8,103.4-8
		c51.7,0,103.4,7,103.4,7V1451z"/>
	<g id="hammer_1_">
		<path id="tip_3_" fill="#BBBDBF" d="M1141.7,1158.5l0-38.8c0,0,5.9-28.2,22.5-44.9c15.2-15.2,34.9-20.8,34.9-20.8l3.9,12.9
			c0,0-30.1,21.3-12.6,52.6c8.7,15.7,26.8,13.8,26.8,13.8l0.1,86.8c0,0-26.8-4.6-25.4,17.6c1.1,17.5,18.1,16.6,18.1,16.6l0,36
			l-63.7,0.1l0-33.2c0,0,15.7-1.8,15.7-18.5c0-20.3-20.1-18.4-20.1-18.4l0-26.8"/>
		
			<rect id="handle_3_" x="1298.5" y="1068.7" transform="matrix(1.096801e-03 1 -1 1.096801e-03 2501.429 -149.7885)" fill="#603813" width="54.5" height="216.9"/>
	</g>
	<g id="screwdriver_1_">
		<polygon id="tip_2_" fill="#BBBDBF" points="1146.7,1377 1146.8,1337.3 1177.7,1337.3 1191.8,1345.6 1356.1,1345.9 1356.1,1368 
			1192.4,1367.8 1177.1,1377 		"/>
		
			<rect id="handle_2_" x="1331.4" y="1281.5" transform="matrix(-1.995248e-03 1 -1 -1.995248e-03 2718.3901 1.1725)" fill="#603813" width="54.5" height="151.2"/>
	</g>
	<path id="boot-back_2_" fill="#404041" d="M1649.9,1620.6l397.1,9.3v229.4h-159.9l-4.6-32.4l-30.1,32.4h-356.8
		c0,0-18.4-66.4,39.3-115c42.1-35.5,115.1-26.3,115.1-26.3V1620.6z"/>
	<path id="boot-front_2_" fill="#404041" d="M676.8,1620.6l397.1,9.3v229.4H914l-4.6-32.4l-30.1,32.4H522.4c0,0-18.4-66.4,39.3-115
		c42.1-35.5,115.1-26.3,115.1-26.3V1620.6z"/>
	
		<rect id="belt-loop-bottom_1_" x="1326.8" y="1321.1" fill="#231F20" stroke="#231F20" stroke-miterlimit="10" width="60.2" height="72.1"/>
	
		<rect id="belt-loop-top_1_" x="1326.8" y="1144.2" fill="#231F20" stroke="#231F20" stroke-miterlimit="10" width="60.2" height="72.1"/>
	<rect id="front-buckle-bottom_3_" x="1647" y="1712.1" fill="#231F20" width="128.6" height="55.6"/>
	<rect id="front-buckle-top_3_" x="1647" y="1620.6" fill="#231F20" width="128.6" height="55.6"/>
	<rect id="front-buckle-bottom_2_" x="673.9" y="1712.1" fill="#231F20" width="128.6" height="55.6"/>
	<rect id="front-buckle-top_2_" x="673.9" y="1620.6" fill="#231F20" width="128.6" height="55.6"/>
</g>
</svg>
