<?xml version="1.0" encoding="utf-8"?>
<!-- Generator: Adobe Illustrator 18.1.1, SVG Export Plug-In . SVG Version: 6.00 Build 0)  -->
<svg version="1.1" xmlns="http://www.w3.org/2000/svg" xmlns:xlink="http://www.w3.org/1999/xlink" x="0px" y="0px"
	 viewBox="0 0 2048 2048" enable-background="new 0 0 2048 2048" xml:space="preserve">
<g id="spike-back-to-school">
	<path id="circlebackground"  FCF8CD" d="M233,842.5c90.4-26.7,163.3,50.1,147.2,144.8s-73.5,142.1-172,124
		c-98.5-18.1-113.2-95.6-98.5-158.2S183,857.2,233,842.5z"/>
	<path id="curvybackground"  FCF8CD" d="M1593.5,437.9c102-6.3,153.7,30.7,194.6,92.8s44.9,95.4,81.1,159
		c55.4,97.3,183.8,180.4,166.6,286c-14.1,86.6-122.1,149-177.1,227.3c-44.8,63.7-53.4,136.7-57.7,207.6
		c-4.3,70.8-5.5,143.1-37.8,210.5s-102.5,130.6-198.2,147.9c-131.6,23.7-256.4-43.4-352.5-110.2c-96.2-66.8-202.8-142.7-337.8-141
		c-90.5,1.1-176.1,38.2-266.5,37.6c-81.3-0.5-103.6-14.8-152.4-61c-48.8-46.1-71.9-104.8-75.9-163.4c-2.9-43.8,4.9-89.4,35.3-127.9
		c48.6-61.6,90.6-112.5,160-162.9c73.2-53.2,115.1-125.7,132.6-199.1c17.5-73.4-31.5-146.8-41.7-220.5
		c-8.9-64.6-20.2-92.4-2.5-156.5C681.5,400,737,348.9,822.6,327.3c94.3-23.8,237.6,26.1,283.6,139.5
		c38.7,95.4,197.1,140.5,290.1,46.1C1428.9,479.8,1491.5,444.2,1593.5,437.9z"/>
	<polygon id="big-tri-green"  00A14B" points="1328.4,482.5 1896.4,1125.9 1318,1512.8 	"/>
	<circle id="cir-green"  00A14B" cx="762.3" cy="872.4" r="51.2"/>
	<circle id="cir-blue"  7CCEDC" cx="372.1" cy="666.9" r="18.1"/>
	<circle id="cir-purple"  7F3F97" cx="1031.6" cy="570.2" r="25.7"/>
	<circle id="cir-yellow"  FFD141" cx="249.8" cy="454.1" r="27"/>
	<polygon id="big-tri-yellow"  FFD141" points="469,1485.5 983.9,798.8 1480.1,1286.8 	"/>
	
		<rect id="rect-yellow2" x="1778.5" y="506.3" transform="matrix(0.7284 0.6852 -0.6852 0.7284 881.7643 -1083.8854)"  FFD141" width="59" height="127.8"/>
	
		<rect id="rect-yellow1" x="143.3" y="772.1" transform="matrix(-0.2922 0.9564 -0.9564 -0.2922 1022.7701 914.9682)"  FFD141" width="59" height="127.8"/>
	
		<rect id="rect-purple" x="1456.2" y="569" transform="matrix(0.8743 0.4854 -0.4854 0.8743 494.0183 -641.6245)"  7F3F97" width="59" height="127.8"/>
	
		<rect id="rect-orange" x="1936.4" y="732.8" transform="matrix(0.4191 0.908 -0.908 0.4191 1865.4862 -1322.1097)"  F05A28" width="59" height="127.8"/>
	
		<rect id="rect-green" x="1948.4" y="1268.1" transform="matrix(-0.2428 0.9701 -0.9701 -0.2428 3750.2256 -263.2799)"  00A14B" width="59" height="127.8"/>
	
		<rect id="rect-red1" x="590.9" y="390.2" transform="matrix(-0.6952 0.7189 -0.7189 -0.6952 1377.995 323.7631)"  D12430" width="59" height="127.8"/>
	
		<rect id="rect-blue" x="1002.1" y="257.6" transform="matrix(0.9769 0.2135 -0.2135 0.9769 92.4175 -212.833)"  7CCEDC" width="59" height="127.8"/>
	<g id="spike">
		<path  D12430" d="M1817.7,1613.7l-235.5-10.3c2.8-64.4-17.8-121.2-62-169.3c-44.1-49.1-98.8-74.7-163.3-77.5
			c-64.4-2.8-121.2,17.8-169.4,62.9c-47.2,44.2-72.7,98.9-75.6,163.3l-229.7-10.1l3.3-76l7.5-170.1l0.2-5
			c70.8-9.5,134.2-39.8,189.1-90.6c20.6-18.8,38.4-39,53.5-60.5l0,0.5c71.7-36,149.1-52.7,231.4-49c129.8,5.7,239.3,56.7,326.6,153
			C1782,1370.4,1823.3,1483.9,1817.7,1613.7 M1157.7,1005.1c-1.5,21.3-5.4,41.9-11.1,61.8c-0.7,2.4-1.4,4.8-2.1,7.2
			c-0.8,2.4-1.5,4.8-2.3,7.1c-0.6,2-1.4,3.9-2.1,5.8c-1,2.8-2,5.5-3.1,8.3c-1,2.7-2,5.3-3.1,8c-2.4,5.6-4.9,11.2-7.6,16.7
			c-0.2,0.3-0.3,0.6-0.4,0.8c-0.1,0.1-0.1,0.2-0.1,0.3c-0.6,1.2-1.2,2.3-1.8,3.5c-4.3,8.3-8.9,16.4-14,24.3
			c-14.1,22.4-31,42.8-51,61c-0.9,0.9-1.8,1.8-2.8,2.7c-0.7,0.6-1.4,1.2-2.1,1.9c-0.9,0.7-1.7,1.5-2.6,2.2
			c-32,28-66.8,48.3-104.2,61.4c-2.9,1.1-5.9,2-8.9,3c-2.3,0.7-4.5,1.5-6.8,2.2c-31.8,9.3-65.3,13.2-100.3,11.6c-0.8,0-1.5,0-2.3,0
			c-1,0-2-0.1-3-0.2c-0.9,0-1.8-0.1-2.7-0.2c-2.9-0.2-5.8-0.3-8.6-0.6c-4.6-0.4-9.1-0.9-13.6-1.4c-1.7-0.2-3.3-0.4-5-0.6
			c-3.8-0.5-7.6-1.2-11.4-1.8c-2.4-0.4-4.8-0.9-7.2-1.4c-2.9-0.6-5.8-1.1-8.6-1.8c-12.1-2.8-23.7-6.4-35.1-10.6
			c-0.8-0.3-1.5-0.5-2.2-0.8c-3.8-1.4-7.6-2.8-11.3-4.4c-5.5-2.3-11-4.7-16.3-7.3c-40.7-19.7-76.5-48.5-107.3-86.3
			c-7.4-9.3-14.2-18.8-20.4-28.5c-0.7-1.1-1.4-2.2-2.1-3.3c-4-6.4-7.8-12.8-11.3-19.4c-1-1.8-1.9-3.7-2.8-5.6
			c-3.1-6.1-6-12.3-8.7-18.6c-0.6-1.3-1.2-2.6-1.7-4c-3.2-7.9-6-15.8-8.6-23.9c-0.1-0.3-0.2-0.6-0.3-0.9
			c-10.3-33.4-14.7-68.5-13.1-105.3c0-0.7,0-1.4,0-2.1c0-0.9,0.1-1.8,0.2-2.7c0.1-1.3,0.2-2.5,0.3-3.8c0.1-2.2,0.3-4.4,0.4-6.5
			c0.5-6.4,1.2-12.8,2-19l28.3-259.8c26.8,19.7,50.6,43.5,71.4,72.1c19.8-18.3,41.1-33.7,64-45.9l208.4-133.9
			c1.5,31-1.8,62.3-9.7,94l203.2-12.5c-14.8,29.7-34.2,57.1-58.8,82.2c18.7,14.6,35.8,31.7,51.2,50.9c24.8-25,51.8-44.9,81.3-60.2
			l-11,251C1159.1,982.7,1158.8,993.9,1157.7,1005.1 M1000.4,985.4c0.2-5,0.2-9.9,0-14.8c0,0,0-0.1,0-0.1c-0.3-5-0.8-10-1.5-14.9
			c0-0.2,0-0.5-0.1-0.7c-0.6-4.2-1.5-8.3-2.4-12.4c-0.3-1.2-0.6-2.5-0.9-3.7c-0.7-2.8-1.6-5.6-2.5-8.3c-0.9-2.6-1.7-5.2-2.7-7.8
			c-0.5-1.3-1.1-2.5-1.6-3.8c-5.7-13.3-13.3-26-23-38.1c-6.7-8.4-14-15.8-21.7-22.5c-0.4-0.3-0.8-0.6-1.1-0.9
			c-3.4-2.9-7-5.6-10.6-8.2c-0.8-0.5-1.5-1-2.3-1.5c-3.4-2.3-6.9-4.5-10.4-6.5c-0.9-0.5-1.7-0.9-2.6-1.4c-3.6-1.9-7.3-3.7-11-5.3
			c-0.9-0.4-1.8-0.7-2.7-1.1c-3.7-1.5-7.5-2.9-11.5-4.2c-1.1-0.4-2.2-0.7-3.3-1c-3.6-1.1-7.3-2-11-2.8c-1.9-0.4-3.9-0.7-5.8-1.1
			c-2.8-0.5-5.6-1-8.5-1.3c-3.8-0.5-7.6-0.8-11.6-1c-0.9-0.1-1.7-0.1-2.6-0.2c-9.9-0.4-19.5,0.1-28.9,1.3c-1.5,0.2-3,0.5-4.5,0.7
			c-2.4,0.4-4.8,0.9-7.1,1.4c-3.6,0.8-7.1,1.7-10.5,2.7c-2,0.6-3.9,1.1-5.8,1.8c-2.6,0.9-5.1,1.8-7.7,2.9c-0.1,0-0.2,0.1-0.4,0.2
			c-5.3,2.2-10.5,4.7-15.6,7.5c-0.9,0.5-1.8,1-2.8,1.5c-2.1,1.2-4.2,2.4-6.3,3.8c-7.9,5.1-15.6,10.9-23,17.6
			c-7.3,6.7-13.7,13.8-19.4,21.2c-0.8,1.1-1.7,2.1-2.5,3.2c-1.3,1.9-2.5,3.8-3.7,5.7c-1.6,2.6-3.4,5.2-4.9,7.9
			c-0.2,0.3-0.3,0.6-0.5,0.9c-7,12.8-12.4,26.8-15.9,42c-0.5,2.1-0.7,4.2-1.1,6.3c-0.5,2.7-0.9,5.4-1.3,8c-1.1,9.8-1.5,20-0.8,30.4
			c0.5,8,1.7,15.6,3.2,23.1c4,17.9,11.2,35.3,21.9,52c23.4,36.3,56.5,59.4,98.7,69c2.1,0.5,4.2,0.7,6.3,1.1c2.9,0.5,5.8,1,8.8,1.3
			c1,0.1,2,0.2,3,0.3c3.8,0.3,7.6,0.6,11.3,0.7c2.5,0.1,4.9,0,7.3,0c2.4,0,4.7-0.1,7-0.2c3-0.2,5.8-0.4,8.7-0.8
			c2.1-0.2,4.2-0.5,6.3-0.8c2.6-0.4,5.1-0.9,7.6-1.4c2.7-0.6,5.5-1.2,8.2-1.9c1.5-0.4,3.1-0.9,4.6-1.3c18.5-5.7,36.1-14.9,52.5-27.8
			c3.5-2.9,6.8-5.9,10.1-8.9c3.2-3.1,6.4-6.3,9.4-9.7c12.8-14.4,22.2-30,28.8-46.5c1-2.7,2.1-5.4,3-8.2c0.5-1.7,1-3.4,1.5-5.1
			c0.9-3.2,1.8-6.4,2.5-9.7c0.4-2.1,0.8-4.2,1.1-6.3c0.5-2.8,1-5.5,1.3-8.3c0.4-3.5,0.8-7,0.9-10.6
			C1000.3,987.8,1000.4,986.6,1000.4,985.4"/>
	</g>
	<path id="sock-yellow"  FFD141" d="M1537.4,1476.2l284.7,3l-1.6,146.3l-378-4c0,0,5.2-57.7,56.3-72.5
		c32.8-9.5,58.6,0.6,58.6,0.6L1537.4,1476.2z"/>
	<path id="sock-orange"  F16522" d="M864.2,1476.2l284.7,3l-1.6,146.3l-378-4c0,0,5.2-57.7,56.3-72.5
		c32.8-9.5,58.6,0.6,58.6,0.6L864.2,1476.2z"/>
	<path id="shoe-orange"  F16522" d="M1548.5,1586.6l2.4-37c0,0-34.4-17.1-75.5,11.6c-35.2,24.6-32.1,60.3-32.1,60.3l378,4
		v-39.6L1548.5,1586.6z"/>
	<path id="shoe-blue"  7CCEDC" d="M875.2,1586.6l2.4-37c0,0-34.4-17.1-75.5,11.6c-35.2,24.6-32.1,60.3-32.1,60.3l378,4v-39.6
		L875.2,1586.6z"/>
	<circle id="shoe-dot-yellow"  FFD141" cx="1037.3" cy="1530.6" r="36.7"/>
	<circle id="shoe-dot-purple"  7F3F97" cx="1722.9" cy="1530.6" r="36.7"/>
	<path id="shoelace-green"  00A14B" d="M1503.9,1593.8c-0.3,0-0.7-0.1-0.9-0.3c-0.6-0.5-0.7-1.5-0.2-2.1l39-47.7
		c-5,2.4-13.2,5.7-25.4,8c-10.7,2.1-24.5-2.1-30.2-14.1c-4.1-8.7-1.8-17.9,6.2-24.5c5.1-4.2,10.9-5.9,17.2-5
		c17.4,2.4,33.6,23.4,37.6,28.8c3.9-5.4,20.2-26.3,37.6-28.8c6.3-0.9,12.1,0.8,17.2,5c8,6.6,10.3,15.8,6.2,24.5
		c-5.6,12-19.4,16.1-30.2,14.1c-12.2-2.4-20.4-5.6-25.4-8l39,47.7c0.5,0.6,0.4,1.6-0.2,2.1c-0.6,0.5-1.6,0.4-2.1-0.2l-42.1-51.5
		l-42.1,51.5C1504.7,1593.6,1504.3,1593.8,1503.9,1593.8z M1549.6,1538.6c3,1.9,12.1,6.9,28.9,10.1c9.6,1.8,21.9-1.8,26.9-12.4
		c3.5-7.4,1.5-15.2-5.4-20.9c-4.4-3.6-9.4-5.1-14.9-4.3C1569.2,1513.3,1553.4,1533.4,1549.6,1538.6z M1506.4,1510.9
		c-4.4,0-8.4,1.5-12.1,4.5c-6.9,5.7-8.9,13.5-5.4,20.9c5,10.6,17.3,14.3,26.9,12.4c16.8-3.2,25.8-8.2,28.9-10.1
		c-3.8-5.2-19.6-25.3-35.5-27.5C1508.2,1511,1507.3,1510.9,1506.4,1510.9z"/>
	<path id="shoelace-purple"  7F3F97" d="M918.1,1593.8c-0.4,0-0.9-0.2-1.2-0.6l-42.1-51.5l-42.1,51.5
		c-0.5,0.6-1.5,0.7-2.1,0.2c-0.6-0.5-0.7-1.5-0.2-2.1l39-47.7c-5,2.4-13.2,5.7-25.4,8c-10.7,2.1-24.5-2.1-30.2-14.1
		c-4.1-8.7-1.8-17.9,6.2-24.5c5.1-4.2,10.9-5.9,17.2-5c17.4,2.4,33.6,23.4,37.6,28.8c3.9-5.4,20.2-26.3,37.6-28.8
		c6.3-0.9,12.1,0.8,17.2,5c8,6.6,10.3,15.8,6.2,24.5c-5.6,12-19.4,16.1-30.2,14.1c-12.2-2.4-20.4-5.6-25.4-8l39,47.7
		c0.5,0.6,0.4,1.6-0.2,2.1C918.8,1593.7,918.5,1593.8,918.1,1593.8z M834.1,1510.9c-4.4,0-8.4,1.5-12.1,4.5
		c-6.9,5.7-8.9,13.5-5.4,20.9c5,10.6,17.3,14.3,26.9,12.4c16.9-3.3,25.9-8.2,28.9-10.1c-3.8-5.2-19.6-25.3-35.5-27.5
		C836,1511,835,1510.9,834.1,1510.9z M877.4,1538.6c3,1.9,12.1,6.9,28.9,10.1c9.6,1.8,21.9-1.8,26.9-12.4c3.5-7.4,1.5-15.2-5.4-20.9
		c-4.4-3.6-9.4-5.1-14.9-4.3C896.9,1513.3,881.2,1533.4,877.4,1538.6z"/>
	<polygon id="backpack"  7CCEDC" points="1722.3,1027.9 1742.7,914.4 1511.8,872.8 1493.5,974.4 1295.5,928.1 1259.4,1091 
		1215.8,1083.1 1208.5,1123.4 1250.6,1131 1247,1146.9 1738.5,1287.9 1800.8,1046.2 	"/>
	
		<rect id="pack-strap-orange" x="1261" y="1036.6" transform="matrix(0.962 0.2732 -0.2732 0.962 340.2997 -348.4632)"  F16522" width="320.7" height="22.1"/>
	<path id="pack-buckle"  FFF100" d="M1563.8,1114.5c-18.5-16.9-9.5-43,9.4-49.3c20.7-6.9,83.1,3.9,83.1,3.9l-6.3,65.4
		C1650,1134.6,1578.7,1128.2,1563.8,1114.5z"/>
	<polygon id="pack-buckle-inner"  7CCEDC" points="1638,1081.5 1607.9,1077.5 1605.5,1115.1 1634.6,1117.7 	"/>
	
		<rect id="pack-strap-purple" x="1566.5" y="917.9" transform="matrix(1.373708e-02 0.9999 -0.9999 1.373708e-02 2521.1106 -699.7496)"  7F3F97" width="97.6" height="20.4"/>
	<path id="school"  7CCEDC" d="M95.9,1583.4c-0.5-2.1-1.3-4.3-2.2-6.4c-0.9-2.2-2-4-3.4-5.7c-1.3-1.6-2.9-2.9-4.7-3.7
		c-1.8-0.9-3.7-1.1-5.7-0.7c-1.9,0.4-3.3,1.1-4.2,2.1c-0.9,1.1-1.5,2.2-1.7,3.6c-0.3,1.3-0.3,2.7-0.1,4.1c0.2,1.4,0.5,2.7,0.7,3.7
		c0.8,2.9,2.8,5.6,6,8c3.1,2.4,7,4.3,11.7,5.5c7,1.8,13,4,18,6.6c5,2.6,9.1,5.5,12.5,8.9c3.3,3.3,6,7.1,7.9,11.2
		c1.9,4.1,3.4,8.6,4.5,13.5c1.9,10,0.8,18.5-3.3,25.3c-4.1,6.9-10.7,11.4-19.9,13.7c-5.3,1.3-10.5,1.4-15.4,0.3
		c-4.9-1.1-9.4-3.3-13.4-6.6c-4-3.3-7.5-7.6-10.5-13c-3-5.4-5.3-11.8-6.8-19.1l22.7-5.7c1.5,7.5,3.7,13.4,6.7,17.6
		c3,4.2,6.7,5.8,11.1,4.7c1.7-0.4,3-1.1,3.9-2.1c1-1,1.6-2,2.1-3.1c0.4-1.1,0.6-2.3,0.7-3.6c0.1-1.3,0-2.4-0.3-3.4
		c-1.1-5.2-3.8-9.8-8.3-13.8c-4.5-3.9-10.5-7-17.9-9c-9.5-2.7-17-6.6-22.7-11.9c-5.7-5.3-9.5-11.6-11.4-19.2c-2.5-9.9-1.8-18.5,2-26
		c3.8-7.4,10.9-12.5,21.3-15.1c4.7-1.2,9.3-1.4,13.7-0.6c4.4,0.8,8.5,2.5,12.3,5.3c3.8,2.8,7.1,6.6,9.9,11.5
		c2.8,4.8,5.1,10.7,6.6,17.6L95.9,1583.4z M191.5,1575.1c-2.6-1.4-4.9-2.3-7-2.6c-2-0.4-3.5-0.5-4.5-0.2c-3.2,0.8-5.8,2.7-7.7,5.8
		c-1.9,3.1-3.3,6.9-4,11.5c-0.7,4.6-0.9,9.8-0.5,15.6c0.4,5.8,1.3,11.9,2.8,18.4c1.1,4.3,2.5,8.4,4.2,12.5c1.8,4,3.8,7.6,6.1,10.7
		c2.3,3.1,4.7,5.6,7.4,7.3c2.6,1.7,5.3,2.4,7.9,2c1.4-0.1,3.1-1,5.1-2.6c2-1.6,4.2-3.9,6.3-6.7l15.1,16.6c-3.5,5.3-7.1,9-10.9,11.2
		c-3.8,2.2-7.4,3.7-10.8,4.6c-5.9,1.5-11.6,1-17.1-1.3c-5.5-2.3-10.5-5.9-15.2-10.7c-4.7-4.8-8.7-10.6-12.2-17.3
		c-3.5-6.8-6.2-13.8-8.2-21.2c-2.2-8.4-3.5-17-3.7-25.7c-0.2-8.8,0.7-16.8,2.7-24.2c2.1-7.4,5.4-13.7,10-19
		c4.6-5.3,10.6-8.7,18.2-10.3c2.7-0.6,5.6-0.8,8.7-0.7c3,0.1,6.5,0.6,10.4,1.5L191.5,1575.1z M314.3,1627.3l-22.4,5.6l-13-52.1
		l-23.8,5.9l13,52.1l-22.4,5.6l-32-128.2l22.4-5.6l13.4,53.7l23.8-5.9l-13.4-53.7l22.4-5.6L314.3,1627.3z M409.7,1564
		c1.8,8.7,2.8,17,3,24.9c0.2,7.9-0.6,15-2.3,21.2c-1.8,6.3-4.6,11.6-8.5,15.8c-3.9,4.3-9.1,7.2-15.6,8.8c-12,2.9-22.3-0.2-31.1-9.3
		c-8.7-9-15.5-23.9-20.2-44.5c-1.8-7.6-2.9-15.4-3.4-23.4c-0.5-8,0-15.6,1.5-22.6c1.5-7,4.2-13.1,8-18.4c3.8-5.3,9.3-8.9,16.3-10.9
		c5.2-1.4,9.9-1.5,14.3-0.2c4.3,1.3,8.3,3.5,11.9,6.6c3.6,3.1,6.8,6.9,9.7,11.3c2.9,4.4,5.4,9,7.5,13.8c2.1,4.8,3.9,9.5,5.4,14.1
		c1.5,4.6,2.6,8.8,3.4,12.4L409.7,1564z M499.3,1503.2c1.8,8.7,2.8,17,3,24.9c0.2,7.9-0.6,15-2.3,21.2c-1.8,6.3-4.6,11.6-8.5,15.8
		c-3.9,4.3-9.1,7.2-15.6,8.8c-12,2.9-22.3-0.2-31.1-9.3c-8.7-9-15.5-23.9-20.2-44.5c-1.8-7.6-2.9-15.4-3.4-23.4
		c-0.5-8,0-15.6,1.5-22.6c1.5-7,4.2-13.1,8-18.4c3.8-5.3,9.3-8.9,16.3-10.9c5.2-1.4,9.9-1.5,14.3-0.2c4.3,1.3,8.3,3.5,11.9,6.6
		c3.6,3.1,6.8,6.9,9.7,11.3c2.9,4.4,5.4,9,7.5,13.8c2.1,4.8,3.9,9.5,5.4,14.1c1.5,4.6,2.6,8.8,3.4,12.4L499.3,1503.2z M534.9,1453.9
		l26.3,105.6l30.5-7.6l5.5,22.2l-52.7,13.1l-31.9-127.9L534.9,1453.9z"/>
	<path id="to"  FFD141" d="M214.9,1441.4l-26.4-105.8l-22.4,5.6l-5.5-22.2l67.2-16.8l5.5,22.2l-22.2,5.5l26.4,105.8
		L214.9,1441.4z M332.6,1331.2c1.8,8.7,2.8,17,3,24.9c0.2,7.9-0.6,15-2.3,21.2c-1.8,6.3-4.6,11.6-8.5,15.8
		c-3.9,4.3-9.1,7.2-15.6,8.8c-12,2.9-22.3-0.2-31.1-9.3c-8.7-9-15.5-23.9-20.2-44.5c-1.8-7.6-2.9-15.4-3.4-23.4s0-15.6,1.5-22.6
		c1.5-7,4.2-13.1,8-18.4c3.8-5.3,9.3-8.9,16.3-10.9c5.2-1.4,9.9-1.5,14.3-0.2c4.3,1.3,8.3,3.5,11.9,6.6c3.6,3.1,6.8,6.9,9.7,11.3
		c2.9,4.4,5.4,9,7.5,13.8c2.1,4.8,3.9,9.5,5.4,14.1c1.5,4.6,2.6,8.8,3.4,12.4L332.6,1331.2z"/>
	<path id="back"  00A14B" d="M1,1152.1c1.2-0.4,2.8-0.9,5.1-1.5c2.2-0.6,4-1.1,5.3-1.4c5-1.2,10.1-2.1,15.3-2.6
		c5.2-0.5,10.2-0.1,14.9,1c4.7,1.2,8.9,3.4,12.6,6.8c3.7,3.4,6.6,8.3,8.6,14.7c0.9,3,1.3,5.9,1.3,8.6c0,2.7-0.3,5.3-1,7.8
		c-0.7,2.4-1.5,4.7-2.6,6.7c-1.1,2.1-2.2,3.8-3.5,5.3c6.2,2.3,11.5,5.9,15.8,11c4.3,5.1,7.3,11.2,9.1,18.4
		c1.3,5.4,1.4,10.7,0.3,15.9c-1.1,5.2-3.4,10.1-6.8,14.6c-3.4,4.5-7.9,8.4-13.4,11.9c-5.6,3.4-12,6-19.3,7.9c-1.2,0.3-2.9,0.7-5,1.1
		s-3.8,0.7-4.9,0.9L1,1152.1z M185.6,1212.6l-22.5,5.6l-17.4-34.9l-17,4.2c0.2,6.2,0.3,12.7,0.4,19.6c0.1,6.9,0.2,13.4,0.3,19.4
		l-22.4,5.6l-3.1-135.4l20.8-5.2L185.6,1212.6z M238.7,1118.2c-2.6-1.4-4.9-2.3-7-2.6c-2-0.4-3.5-0.5-4.5-0.2
		c-3.2,0.8-5.8,2.7-7.7,5.8c-1.9,3.1-3.3,6.9-4,11.5c-0.7,4.6-0.9,9.8-0.5,15.6c0.4,5.8,1.3,11.9,2.8,18.4c1.1,4.3,2.5,8.4,4.2,12.5
		c1.8,4,3.8,7.6,6.1,10.7c2.3,3.1,4.7,5.6,7.4,7.3c2.6,1.7,5.3,2.4,7.9,2c1.4-0.1,3.1-1,5.1-2.6s4.2-3.9,6.3-6.7l15.1,16.6
		c-3.5,5.3-7.1,9-10.9,11.2c-3.8,2.2-7.4,3.7-10.8,4.6c-5.9,1.5-11.6,1-17.1-1.3c-5.5-2.3-10.5-5.9-15.2-10.7
		c-4.7-4.8-8.7-10.6-12.2-17.3c-3.5-6.8-6.2-13.8-8.2-21.2c-2.2-8.4-3.5-17-3.7-25.7c-0.2-8.8,0.7-16.8,2.7-24.2
		c2.1-7.4,5.4-13.7,10-19c4.6-5.3,10.6-8.7,18.2-10.3c2.7-0.6,5.6-0.8,8.7-0.7s6.5,0.6,10.4,1.5L238.7,1118.2z M302.8,1146.2
		l10.8,43.3l-22.4,5.6l-32-128.2l22.4-5.6l8.1,32.3c2.4-6.3,4.9-12.7,7.3-19.2c2.4-6.4,4.7-12.7,6.8-18.7l27.1-6.8l-25.6,65.3
		c4.6,4.9,9.4,10.1,14.3,15.4c4.9,5.3,9.9,10.7,14.9,16.1c5,5.4,10,10.7,14.9,16s9.6,10.4,14.1,15.3l-26.6,6.6L302.8,1146.2z"/>
</g>
<g id="spike-superhero">
</g>
<g id="spike-construction-text">
</g>
<g id="spike-construction">
</g>
</svg>
