<?xml version="1.0" encoding="utf-8"?>
<!-- Generator: Adobe Illustrator 19.1.0, SVG Export Plug-In . SVG Version: 6.00 Build 0)  -->
<svg version="1.1" id="Layer_1" xmlns="http://www.w3.org/2000/svg" xmlns:xlink="http://www.w3.org/1999/xlink" x="0px" y="0px"
	 viewBox="0 0 2048 2048" enable-background="new 0 0 2048 2048" xml:space="preserve">
<path d="M1963.4,444.3v1445.3c0,39.2-14.3,72.8-42.9,101.4c-28.6,28.6-62.2,42.9-101.4,42.9H228.9
	c-39.2,0-72.8-14.3-101.4-42.9s-42.9-62.2-42.9-101.4V444.3c0-39.2,14.3-72.8,42.9-101.4c28.6-28.6,62.2-42.9,101.4-42.9h144.3
	V191.8c0-49.8,17.4-92,52.9-127.5s77.7-52.9,127.5-52.9h72.8c49.8,0,92,17.4,127.5,52.9c35.4,35.4,52.9,77.7,52.9,127.5v108.2
	h433.5V191.8c0-49.8,17.4-92,52.9-127.5s77.7-52.9,127.5-52.9h72.1c49.8,0,92,17.4,127.5,52.9c35.4,35.4,52.9,77.7,52.9,127.5
	v108.2h144.3c39.2,0,72.8,14.3,101.4,42.9C1949.1,371.6,1963.4,405.2,1963.4,444.3z M228.9,1889.6h1589.6V733.5H228.9V1889.6z
		M663,517.1V191.8c0-10.6-3.1-19.3-10-26.1c-6.8-6.8-15.5-10-26.1-10h-72.8c-10.6,0-19.3,3.1-26.1,10c-6.8,6.8-10,15.5-10,26.1
	v325.3c0,10.6,3.1,19.3,10,26.1c6.8,6.8,15.5,10,26.1,10h72.1c10.6,0,19.3-3.1,26.1-10C659.3,535.8,663,527.7,663,517.1z
		M1529.9,517.1V191.8c0-10.6-3.1-19.3-10-26.1c-6.8-6.8-15.5-10-26.1-10h-72.1c-10.6,0-19.3,3.1-26.1,10c-6.8,6.8-10,15.5-10,26.1
	v325.3c0,10.6,3.1,19.3,10,26.1c6.8,6.8,15.5,10,26.1,10h72.1c10.6,0,19.3-3.1,26.1-10C1526.2,535.8,1529.9,527.7,1529.9,517.1z"
	/>
<path fill="#010101" d="M1024,844.8c-266.8,0-483.2,216.4-483.2,483.2s216.4,483.2,483.2,483.2s483.2-216.4,483.2-483.2
	S1290.8,844.8,1024,844.8z M1024,1716.1c-214.6,0-388.1-173.5-388.1-388.1S809.4,940,1024,940s388.1,173.5,388.1,388.1
	S1238.6,1716.1,1024,1716.1z"/>
<path d="M1040,1328.1v-276.1h-69v345.2h276.1v-69H1040z"/>
</svg>
